<svg width="60" height="61" viewBox="0 0 60 61" fill="none" xmlns="http://www.w3.org/2000/svg">
<g id="cellphone_wireless_icon_135793 1">
<path id="Vector" d="M50.175 12.825C54.7 17.35 57.5 23.6 57.5 30.5C57.5 37.4 54.7 43.65 50.175 48.175L46.65 44.65C50.275 41.05 52.5 36.05 52.5 30.5C52.5 24.975 50.275 19.95 46.65 16.35L50.175 12.825ZM43.1 19.9C45.825 22.625 47.5 26.375 47.5 30.5C47.5 34.625 45.825 38.375 43.1 41.1L39.575 37.575C41.375 35.775 42.5 33.275 42.5 30.5C42.5 27.725 41.375 25.225 39.575 23.425L43.1 19.9ZM32.5 25.5C33.8261 25.5 35.0979 26.0268 36.0355 26.9645C36.9732 27.9021 37.5 29.1739 37.5 30.5C37.5 31.8261 36.9732 33.0979 36.0355 34.0355C35.0979 34.9732 33.8261 35.5 32.5 35.5C31.1739 35.5 29.9021 34.9732 28.9645 34.0355C28.0268 33.0979 27.5 31.8261 27.5 30.5C27.5 29.1739 28.0268 27.9021 28.9645 26.9645C29.9021 26.0268 31.1739 25.5 32.5 25.5ZM28.75 3C30.4076 3 31.9973 3.65848 33.1694 4.83058C34.3415 6.00269 35 7.5924 35 9.25V20.5H30V10.5H7.5V48H30V40.5H35V51.75C35 53.4076 34.3415 54.9973 33.1694 56.1694C31.9973 57.3415 30.4076 58 28.75 58H8.75C7.0924 58 5.50269 57.3415 4.33058 56.1694C3.15848 54.9973 2.5 53.4076 2.5 51.75V9.25C2.5 7.5924 3.15848 6.00269 4.33058 4.83058C5.50269 3.65848 7.0924 3 8.75 3H28.75Z" fill="white"/>
</g>
</svg>
