<svg width="58" height="58" viewBox="0 0 58 58" fill="none" xmlns="http://www.w3.org/2000/svg">
<g id="bee_icon_125545 1">
<path id="Layer_3" d="M29.3998 17.2145C30.6948 15.3795 33.0222 16.0926 35.6032 17.9277C40.5683 21.4576 46.4644 29.138 47.7146 30.803C47.7952 30.9074 47.8757 31.0148 47.9563 31.1252C50.3672 34.5447 50.3672 40.0857 47.9563 43.5052C45.5424 46.9246 41.6306 46.9246 39.2196 43.5052C39.142 43.3948 39.0645 43.2814 38.9928 43.165C38.7392 42.7801 38.2827 42.0878 37.7008 41.1628C36.9012 39.8947 35.8658 38.1969 34.7797 36.2723C33.8368 34.6044 32.8581 32.7693 31.9689 30.9014C30.1189 27.0344 28.6449 23.0301 28.6449 20.0999C28.6449 18.9482 28.8746 17.9605 29.3998 17.2145ZM9.57517 30.803C9.4946 30.9074 9.41404 31.0148 9.33348 31.1252C6.92253 34.5447 6.92253 40.0857 9.33348 43.5052C11.7474 46.9246 15.6592 46.9246 18.0702 43.5052C18.1477 43.3948 18.2253 43.2814 18.2969 43.165C18.5506 42.7801 19.0071 42.0878 19.5889 41.1628C20.3886 39.8947 21.424 38.1969 22.5101 36.2723C23.453 34.6044 24.4317 32.7693 25.3209 30.9014C27.1709 27.0344 28.6449 23.0301 28.6449 20.0999C28.6449 18.9452 28.4151 17.9575 27.89 17.2116C26.595 15.3765 24.2676 16.0896 21.6866 17.9247C16.7215 21.4576 10.8254 29.138 9.57517 30.803Z" fill="#F7A733"/>
<path id="Layer_4" d="M28.6447 20.0999C28.6447 18.9452 28.415 17.9575 27.8898 17.2115C26.5948 15.3765 24.2674 16.0896 21.6864 17.9247V17.316C21.6864 13.4728 24.8015 10.3577 28.6447 10.3577C32.4879 10.3577 35.603 13.4728 35.603 17.316V17.9277C33.022 16.0926 30.6946 15.3795 29.3996 17.2145C28.8745 17.9605 28.6447 18.9481 28.6447 20.0999Z" fill="#F7A733"/>
<path id="Layer_5" d="M28.645 20.0996C28.645 23.0268 30.119 27.0311 31.966 30.9011H25.324C27.171 27.0341 28.645 23.0297 28.645 20.0996Z" fill="#F7A733"/>
<path id="Layer_6" d="M34.7796 36.272H22.51C23.4529 34.6041 24.4316 32.769 25.3208 30.9011H31.9658C32.858 32.769 33.8367 34.6041 34.7796 36.272Z" fill="#F7A733"/>
<path id="Layer_7" d="M37.6979 41.1625V41.6429H19.589V41.1625C20.3887 39.8944 21.4241 38.1965 22.5102 36.272H34.7797C35.8658 38.1965 36.9012 39.8944 37.6979 41.1625Z" fill="#F7A733"/>
<path id="Layer_2" d="M19.589 41.6431H37.6979C37.6979 43.6661 37.119 45.5071 36.1284 47.014H21.1615C20.1708 45.5071 19.589 43.6661 19.589 41.6431Z" fill="#F7A733"/>
<path id="Layer_8" d="M21.1614 47.0139H36.1283C34.4932 49.4995 31.7451 51.0779 28.6448 51.0779C26.1533 51.0779 23.8916 50.0604 22.2505 48.3716C21.8477 47.9568 21.4836 47.5033 21.1614 47.0139Z" fill="#F7A733"/>
<g id="STROKES">
<g id="XMLID_2_">
<path id="Vector" d="M37.698 41.6431C37.698 43.6661 37.1192 45.5071 36.1285 47.014C34.4934 49.4995 31.7453 51.078 28.6451 51.078C26.1536 51.078 23.8918 50.0605 22.2507 48.3716C21.8479 47.9569 21.4838 47.5033 21.1616 47.014C20.171 45.5071 19.5891 43.6661 19.5891 41.6431H37.698Z" stroke="white" stroke-width="1.49192" stroke-miterlimit="10" stroke-linecap="round" stroke-linejoin="round"/>
<path id="Vector_2" d="M22.5104 36.272H34.7799" stroke="white" stroke-width="1.49192" stroke-miterlimit="10" stroke-linecap="round" stroke-linejoin="round"/>
<path id="Vector_3" d="M25.3241 30.9011H31.9661" stroke="white" stroke-width="1.49192" stroke-miterlimit="10" stroke-linecap="round" stroke-linejoin="round"/>
<path id="Vector_4" d="M21.6867 17.9275C16.7216 21.4574 10.8255 29.1378 9.57529 30.8028C9.49473 30.9072 9.41416 31.0146 9.3336 31.125C6.92266 34.5445 6.92266 40.0855 9.3336 43.505C11.7475 46.9245 15.6593 46.9245 18.0703 43.505C18.1479 43.3946 18.2254 43.2812 18.2971 43.1648C18.5507 42.7799 19.0072 42.0877 19.5891 41.1627C20.3887 39.8946 21.4241 38.1967 22.5102 36.2722C23.4531 34.6042 24.4318 32.7691 25.321 30.9013C27.171 27.0342 28.645 23.0299 28.645 20.0998C28.645 18.945 28.4153 17.9574 27.8901 17.2114C26.5951 15.3793 24.2647 16.0925 21.6867 17.9275Z" stroke="white" stroke-width="1.49192" stroke-miterlimit="10" stroke-linecap="round" stroke-linejoin="round"/>
<path id="Vector_5" d="M37.7009 41.1628C38.2827 42.0848 38.7362 42.78 38.9929 43.1649C39.0675 43.2813 39.142 43.3947 39.2196 43.5051C41.6306 46.9246 45.5454 46.9246 47.9563 43.5051C50.3672 40.0856 50.3672 34.5446 47.9563 31.1252C47.8787 31.0148 47.7982 30.9073 47.7146 30.8029C46.4644 29.1379 40.5683 21.4575 35.6032 17.9276C33.0222 16.0926 30.6948 15.3794 29.3998 17.2145C28.8747 17.9605 28.6449 18.9481 28.6449 20.1029C28.6449 23.03 30.1189 27.0343 31.9659 30.9044C32.8581 32.7722 33.8368 34.6073 34.7767 36.2753C35.8658 38.1969 36.9012 39.8947 37.7009 41.1628Z" stroke="white" stroke-width="1.49192" stroke-miterlimit="10" stroke-linecap="round" stroke-linejoin="round"/>
<path id="Vector_6" d="M21.6868 17.9276V17.3189C21.6868 13.4757 24.8019 10.3606 28.6451 10.3606C32.4883 10.3606 35.6034 13.4757 35.6034 17.3189V17.9276" stroke="white" stroke-width="1.49192" stroke-miterlimit="10" stroke-linecap="round" stroke-linejoin="round"/>
<path id="Vector_7" d="M25.3718 10.3577C25.3718 10.3577 25.4643 6.73535 22.5432 6.73535" stroke="white" stroke-width="1.49192" stroke-miterlimit="10" stroke-linecap="round" stroke-linejoin="round"/>
<path id="Vector_8" d="M31.9185 10.3577C31.9185 10.3577 31.826 6.73535 34.7472 6.73535" stroke="white" stroke-width="1.49192" stroke-miterlimit="10" stroke-linecap="round" stroke-linejoin="round"/>
<path id="Vector_9" d="M21.1615 47.0139H36.1284" stroke="white" stroke-width="1.49192" stroke-miterlimit="10" stroke-linecap="round" stroke-linejoin="round"/>
<path id="Vector_10" d="M19.5891 41.643V41.1626" stroke="white" stroke-width="1.49192" stroke-miterlimit="10" stroke-linecap="round" stroke-linejoin="round"/>
<path id="Vector_11" d="M37.6982 41.643V41.1626" stroke="white" stroke-width="1.49192" stroke-miterlimit="10" stroke-linecap="round" stroke-linejoin="round"/>
</g>
</g>
</g>
</svg>
