<svg width="58" height="59" viewBox="0 0 58 59" fill="none" xmlns="http://www.w3.org/2000/svg">
<g id="handshake_78914 1" clip-path="url(#clip0_529_1823)">
<g id="Group">
<g id="Group_2">
<g id="Group_3">
<path id="Vector" d="M42.4165 19.651C42.353 19.5263 42.2687 19.4104 42.1616 19.3133C42.0542 19.2165 41.9339 19.1454 41.8085 19.1005L35.2173 16.7316C34.7581 16.5665 34.2663 16.478 33.7544 16.4826C33.243 16.4881 32.7535 16.5863 32.2966 16.7602L27.2955 18.668C26.9435 18.8026 26.594 18.9574 26.2494 19.1335C26.1343 19.193 26.0212 19.2576 25.9086 19.3208C25.5311 19.1162 25.1369 18.9361 24.7255 18.7828C23.4136 18.2924 22.0702 18.1269 20.77 18.238L17.4053 18.5268C17.259 18.5394 17.1111 18.5846 16.9731 18.6658C16.835 18.7471 16.721 18.8569 16.6313 18.9838L9.05534 29.7689C8.89925 29.9903 8.81588 30.2722 8.8414 30.5704C8.86635 30.8686 8.99469 31.1301 9.18424 31.3181L12.4795 34.5839C12.2988 34.9148 12.1842 35.2863 12.1578 35.6838C12.1103 36.3983 12.3449 37.088 12.8163 37.6262C13.2884 38.1642 13.9412 38.4864 14.6562 38.5331C14.6942 38.5357 14.733 38.5357 14.7717 38.5371C14.4786 39.4844 14.7184 40.5603 15.4817 41.2828C15.9386 41.7154 16.5244 41.9673 17.1468 42.0077C16.7458 43.0017 16.9627 44.187 17.7822 44.9624C18.282 45.4362 18.9357 45.6965 19.6246 45.6965C20.3419 45.6965 21.011 45.4164 21.5163 44.9105C21.7042 46.1244 22.7128 47.0924 23.9884 47.1758C24.0471 47.1798 24.1072 47.1824 24.1659 47.1824C24.4919 47.1824 24.8042 47.1208 25.0946 47.0125C25.5689 47.3287 26.1344 47.503 26.7362 47.4786C27.4758 47.4477 28.1392 47.1214 28.6353 46.6109L26.823 44.8026C26.8272 44.7608 26.835 44.7207 26.8367 44.6774C26.8602 44.3223 26.8116 43.9785 26.7058 43.6591L30.415 47.3588C30.8831 47.5493 31.3924 47.6447 31.9229 47.6232C32.9844 47.5799 33.93 47.0787 34.5997 46.303L34.971 45.8724C35.0053 45.8317 35.0317 45.7859 35.0546 45.7367L29.3436 40.0415C29.1964 39.8957 29.1846 39.6531 29.3153 39.5004C29.4462 39.3486 29.673 39.3434 29.8192 39.4892L36.6111 46.2623C36.9813 46.3921 37.3774 46.4553 37.789 46.4384C38.7222 46.4002 39.555 45.9595 40.1436 45.2763L41.0405 44.2382C41.2461 43.9988 41.3688 43.6756 41.3572 43.3245L35.3971 37.3824C35.2515 37.2362 35.2384 36.9931 35.369 36.8416C35.5008 36.6895 35.7271 36.6844 35.8729 36.8302L41.8611 42.8012C42.1068 42.8667 42.3649 42.8989 42.6302 42.8882C43.3954 42.8573 44.0759 42.4964 44.5577 41.9369L44.7986 41.658C45.2807 41.0997 45.5649 40.3434 45.5359 39.521C45.5067 38.6989 45.1716 37.9685 44.6519 37.45L43.0533 35.8561L43.4573 36.2583L47.7797 32.3551C47.9633 32.19 48.0965 31.959 48.1453 31.6874C48.1937 31.4162 48.1499 31.1483 48.0373 30.9217L42.4165 19.651ZM14.7313 37.3773C14.326 37.3509 13.9553 37.1682 13.6869 36.8623C13.4188 36.5573 13.2864 36.1656 13.3134 35.7595C13.3646 34.9623 14.032 34.3381 14.829 34.3381C14.8627 34.3381 14.8971 34.339 14.9309 34.341C15.3362 34.368 15.7069 34.5503 15.9753 34.8563C16.2434 35.162 16.3758 35.5532 16.3497 35.9594C16.2941 36.7903 15.5719 37.4335 14.7313 37.3773ZM17.3227 40.8577C16.9323 40.8577 16.5611 40.7104 16.2775 40.442C15.6757 39.8731 15.6431 38.9144 16.2017 38.3083C16.2307 38.2782 16.8241 37.6504 17.1089 37.3507L17.2584 37.1917C17.5489 36.8852 17.9413 36.7162 18.3635 36.7162C18.7542 36.7162 19.1257 36.8643 19.4087 37.1332C19.704 37.4121 19.8732 37.7894 19.8842 38.1962C19.8954 38.6015 19.7476 38.9879 19.4685 39.2824L19.0451 39.7301C18.9546 39.8252 18.8575 39.9281 18.7581 40.0329C18.7423 40.0507 18.7249 40.0684 18.7097 40.0851C18.6358 40.1627 18.5705 40.2314 18.5198 40.2845C18.4908 40.3157 18.4619 40.3469 18.4322 40.3772C18.4247 40.3849 18.419 40.3915 18.4184 40.3924C18.1303 40.6926 17.7404 40.8577 17.3227 40.8577ZM20.7192 44.0733C20.4301 44.3735 20.0414 44.5384 19.6241 44.5384C19.2333 44.5384 18.8613 44.3903 18.5785 44.1216C17.977 43.5528 17.9441 42.5943 18.5009 41.9911C18.5141 41.9767 18.8626 41.6078 19.2576 41.191C19.2576 41.1907 19.2576 41.1907 19.2576 41.1907L19.5509 40.8811C20.0645 40.3374 20.2329 40.1607 20.2896 40.099C20.2962 40.093 20.3039 40.0858 20.3094 40.0796L20.3105 40.0787C20.3601 40.0251 20.389 39.9953 20.3899 39.9944C20.6798 39.6879 21.0728 39.5187 21.4953 39.5187C21.886 39.5187 22.2567 39.6665 22.5405 39.9351C22.8358 40.2147 23.0043 40.5923 23.0153 40.9979C23.0265 41.405 22.8787 41.7911 22.5985 42.087C22.5717 42.1157 20.7779 44.0109 20.7192 44.0733ZM25.6816 44.6021C25.6265 45.4325 24.9056 46.0764 24.0637 46.0211C23.2267 45.9655 22.5901 45.2397 22.6454 44.4033C22.6978 43.6055 23.3627 42.9813 24.1607 42.9813C24.1945 42.9813 24.2288 42.9824 24.2626 42.9845C25.0996 43.0395 25.736 43.7654 25.6816 44.6021ZM42.6615 35.4653L30.8214 23.6607L30.9549 23.3236C31.0239 23.1477 31.0151 22.94 30.9139 22.7653C30.8126 22.5912 30.6429 22.4897 30.4654 22.4803L29.5854 22.4276L28.6241 22.3707L28.5511 23.5102C28.5502 23.5339 28.3597 26.1252 27.0384 28.4663C25.6838 30.8688 23.8889 31.6972 23.6153 31.7504C23.3096 31.8097 22.9892 31.8661 22.7227 31.8661C22.5397 31.8661 22.3988 31.8404 22.2782 31.7851L21.8287 31.5769C21.6402 31.4895 21.4964 31.3291 21.4205 31.1246C21.3466 30.9272 21.3475 30.7115 21.4205 30.5148L25.9238 20.6317L26.6895 20.1273L26.998 20.0098H26.9974L32.657 17.8512C33.0128 17.7157 33.3855 17.6446 33.7639 17.6411L33.7954 17.6408C34.1627 17.6408 34.5264 17.7044 34.8748 17.8299L41.4662 20.1988L47.0878 31.4691L42.6615 35.4653Z" fill="#F7A733"/>
<path id="Vector_2" d="M49.0677 12.4526L44.618 14.6712C43.9781 14.9911 43.4591 15.5549 43.2139 16.287C42.969 17.0195 43.0449 17.7817 43.3632 18.4231L49.1893 30.103C49.5086 30.7426 50.0721 31.2626 50.8057 31.5066C51.5372 31.7518 52.2995 31.677 52.9406 31.3574L57.3894 29.1377L49.0677 12.4526ZM52.9291 29.1446C52.3382 29.1446 51.8575 28.6654 51.8575 28.0736C51.8575 27.4812 52.3382 27.0009 52.9291 27.0009C53.5212 27.0009 54.0018 27.4812 54.0018 28.0736C54.0018 28.6654 53.5212 29.1446 52.9291 29.1446Z" fill="#F7A733"/>
<path id="Vector_3" d="M16.0336 15.9986C15.8999 15.2375 15.4725 14.6027 14.8864 14.1908L10.8177 11.3335L0.0996094 26.5909L4.16774 29.4488C4.75328 29.8607 5.49603 30.0483 6.2568 29.9152C7.01813 29.7826 7.65234 29.3535 8.06344 28.7683L15.5664 18.0878C15.9786 17.5024 16.1662 16.7589 16.0336 15.9986ZM5.72866 26.3623C5.64015 26.9484 5.09444 27.3515 4.50868 27.2624C3.92291 27.1748 3.5201 26.6287 3.6086 26.0426C3.69689 25.4571 4.24304 25.054 4.82769 25.142C5.41379 25.2306 5.81627 25.7771 5.72866 26.3623Z" fill="#F7A733"/>
</g>
</g>
</g>
</g>
<defs>
<clipPath id="clip0_529_1823">
<rect width="57.2897" height="57.2897" fill="white" transform="translate(0.0996094 0.834961)"/>
</clipPath>
</defs>
</svg>
