<svg width="58" height="59" viewBox="0 0 58 59" fill="none" xmlns="http://www.w3.org/2000/svg">
<g id="rating_grafic_bars_statistics_icon_218613 1">
<path id="Vector" d="M26.407 13.7243C26.407 13.2299 26.8078 12.8291 27.3022 12.8291H34.4634C34.9578 12.8291 35.3586 13.2299 35.3586 13.7243V48.6352H26.407V13.7243Z" fill="#F7A733"/>
<path id="Vector_2" d="M12.9797 31.6273C12.9797 31.1329 13.3804 30.7322 13.8748 30.7322H21.036C21.5304 30.7322 21.9312 31.1329 21.9312 31.6273V48.6352H12.9797V31.6273Z" fill="#F7A733"/>
<path id="Vector_3" d="M40.7293 23.571C40.2349 23.571 39.8342 23.9718 39.8342 24.4662V48.6353H48.7857V24.4662C48.7857 23.9718 48.3851 23.571 47.8905 23.571H40.7293Z" fill="#F7A733"/>
<path id="Vector_4" d="M27.3021 30.2847C27.0549 30.2847 26.8546 30.485 26.8546 30.7322C26.8546 30.9794 27.0549 31.1798 27.3021 31.1798H31.7779C32.0251 31.1798 32.2255 30.9794 32.2255 30.7322C32.2255 30.485 32.0251 30.2847 31.7779 30.2847H27.3021Z" fill="black"/>
<path id="Vector_5" d="M26.8546 34.3126C26.8546 34.0654 27.0549 33.865 27.3021 33.865H31.7779C32.0251 33.865 32.2255 34.0654 32.2255 34.3126C32.2255 34.5598 32.0251 34.7601 31.7779 34.7601H27.3021C27.0549 34.7601 26.8546 34.5598 26.8546 34.3126Z" fill="black"/>
<path id="Vector_6" d="M27.3021 37.4458C27.0549 37.4458 26.8546 37.6462 26.8546 37.8934C26.8546 38.1406 27.0549 38.341 27.3021 38.341H31.7779C32.0251 38.341 32.2255 38.1406 32.2255 37.8934C32.2255 37.6462 32.0251 37.4458 31.7779 37.4458H27.3021Z" fill="black"/>
<path id="Vector_7" d="M26.8546 41.4739C26.8546 41.2267 27.0549 41.0264 27.3021 41.0264H31.7779C32.0251 41.0264 32.2255 41.2267 32.2255 41.4739C32.2255 41.7211 32.0251 41.9215 31.7779 41.9215H27.3021C27.0549 41.9215 26.8546 41.7211 26.8546 41.4739Z" fill="black"/>
<path id="Vector_8" d="M27.3021 44.6069C27.0549 44.6069 26.8546 44.8073 26.8546 45.0545C26.8546 45.3017 27.0549 45.5021 27.3021 45.5021H31.7779C32.0251 45.5021 32.2255 45.3017 32.2255 45.0545C32.2255 44.8073 32.0251 44.6069 31.7779 44.6069H27.3021Z" fill="black"/>
<path id="Vector_9" fill-rule="evenodd" clip-rule="evenodd" d="M34.0157 48.1878C34.5101 48.1878 34.9109 47.7872 34.9109 47.2926V15.0672C34.9109 14.0784 34.1093 13.2769 33.1206 13.2769H25.9594C24.9706 13.2769 24.1691 14.0784 24.1691 15.0672V47.2926C24.1691 47.7872 24.5698 48.1878 25.0642 48.1878H34.0157ZM25.0642 15.0672C25.0642 14.5728 25.465 14.172 25.9594 14.172H33.1206C33.615 14.172 34.0157 14.5728 34.0157 15.0672V47.2926H25.0642V15.0672Z" fill="black"/>
<path id="Vector_10" d="M13.4274 37.8934C13.4274 37.6462 13.6277 37.4458 13.8749 37.4458H18.3507C18.5979 37.4458 18.7983 37.6462 18.7983 37.8934C18.7983 38.1406 18.5979 38.341 18.3507 38.341H13.8749C13.6277 38.341 13.4274 38.1406 13.4274 37.8934Z" fill="black"/>
<path id="Vector_11" d="M13.8749 41.0264C13.6277 41.0264 13.4274 41.2267 13.4274 41.4739C13.4274 41.7211 13.6277 41.9215 13.8749 41.9215H18.3507C18.5979 41.9215 18.7983 41.7211 18.7983 41.4739C18.7983 41.2267 18.5979 41.0264 18.3507 41.0264H13.8749Z" fill="black"/>
<path id="Vector_12" d="M13.4274 45.0545C13.4274 44.8073 13.6277 44.6069 13.8749 44.6069H18.3507C18.5979 44.6069 18.7983 44.8073 18.7983 45.0545C18.7983 45.3017 18.5979 45.5021 18.3507 45.5021H13.8749C13.6277 45.5021 13.4274 45.3017 13.4274 45.0545Z" fill="black"/>
<path id="Vector_13" fill-rule="evenodd" clip-rule="evenodd" d="M21.4838 47.2925C21.4838 47.787 21.083 48.1876 20.5886 48.1876H11.6371C11.1427 48.1876 10.7419 47.787 10.7419 47.2925V29.3894C10.7419 28.4007 11.5435 27.5991 12.5322 27.5991H19.6935C20.6822 27.5991 21.4838 28.4007 21.4838 29.3894V47.2925ZM12.5322 28.4943C12.0379 28.4943 11.6371 28.895 11.6371 29.3894V47.2925H20.5886V29.3894C20.5886 28.895 20.1879 28.4943 19.6935 28.4943H12.5322Z" fill="black"/>
<path id="Vector_14" d="M40.2819 34.3126C40.2819 34.0654 40.4823 33.865 40.7295 33.865H45.2053C45.4523 33.865 45.6528 34.0654 45.6528 34.3126C45.6528 34.5598 45.4523 34.7601 45.2053 34.7601H40.7295C40.4823 34.7601 40.2819 34.5598 40.2819 34.3126Z" fill="black"/>
<path id="Vector_15" d="M40.7295 37.4458C40.4823 37.4458 40.2819 37.6462 40.2819 37.8934C40.2819 38.1406 40.4823 38.341 40.7295 38.341H45.2053C45.4523 38.341 45.6528 38.1406 45.6528 37.8934C45.6528 37.6462 45.4523 37.4458 45.2053 37.4458H40.7295Z" fill="black"/>
<path id="Vector_16" d="M40.2819 41.4739C40.2819 41.2267 40.4823 41.0264 40.7295 41.0264H45.2053C45.4523 41.0264 45.6528 41.2267 45.6528 41.4739C45.6528 41.7211 45.4523 41.9215 45.2053 41.9215H40.7295C40.4823 41.9215 40.2819 41.7211 40.2819 41.4739Z" fill="black"/>
<path id="Vector_17" d="M40.7295 44.6069C40.4823 44.6069 40.2819 44.8073 40.2819 45.0545C40.2819 45.3017 40.4823 45.5021 40.7295 45.5021H45.2053C45.4523 45.5021 45.6528 45.3017 45.6528 45.0545C45.6528 44.8073 45.4523 44.6069 45.2053 44.6069H40.7295Z" fill="black"/>
<path id="Vector_18" fill-rule="evenodd" clip-rule="evenodd" d="M48.3383 47.2925C48.3383 47.7871 47.9377 48.1877 47.4431 48.1877H38.4916C37.9972 48.1877 37.5964 47.7871 37.5964 47.2925V22.2283C37.5964 21.2396 38.398 20.438 39.3867 20.438H46.548C47.5366 20.438 48.3383 21.2396 48.3383 22.2283V47.2925ZM39.3867 21.3331C38.8923 21.3331 38.4916 21.7339 38.4916 22.2283V47.2925H47.4431V22.2283C47.4431 21.7339 47.0425 21.3331 46.548 21.3331H39.3867Z" fill="black"/>
</g>
</svg>
