<svg width="58" height="58" viewBox="0 0 58 58" fill="none" xmlns="http://www.w3.org/2000/svg">
<g id="brain_artificial_intelligence_ai_technology_robot_icon_179504 1">
<path id="Vector" d="M48.2611 22.0044C49.1562 20.73 50.6276 17.7155 48.2611 13.9335C47.7841 13.1482 47.1305 12.485 46.3522 11.9966C46.181 11.1015 45.5085 8.9464 42.8365 7.08336C40.2696 5.29641 36.5234 5.57951 35.8431 5.65C35.2601 5.4643 34.6559 5.35375 34.045 5.32103C32.1237 5.2304 30.6467 5.7563 29.5938 6.89314C29.247 7.28141 28.9607 7.71974 28.7445 8.19335C28.5284 7.71947 28.2417 7.28108 27.8941 6.89314C26.8423 5.7563 25.3362 5.2304 23.4452 5.32103C22.8344 5.35431 22.2302 5.46484 21.6471 5.65C20.9701 5.57951 17.2195 5.29641 14.6459 7.08672C11.9716 8.95087 11.2991 11.1149 11.1291 12.0011C10.3536 12.4903 9.70245 13.153 9.22687 13.9369C6.86255 17.7189 8.33843 20.7333 9.22687 22.0089C8.1359 22.9421 6.10726 25.1285 6.64659 28.125C7.0136 30.1615 8.19521 31.7269 9.85571 32.4464C10.4443 32.9242 13.6299 35.2001 20.6401 35.2695V40.9056H18.156C17.9707 40.0036 17.4573 39.2026 16.7152 38.6576C15.973 38.1126 15.055 37.8624 14.139 37.9555C13.223 38.0486 12.3741 38.4784 11.7568 39.1616C11.1395 39.8448 10.7978 40.7328 10.7978 41.6536C10.7978 42.5743 11.1395 43.4623 11.7568 44.1455C12.3741 44.8287 13.223 45.2585 14.139 45.3516C15.055 45.4447 15.973 45.1946 16.7152 44.6496C17.4573 44.1045 17.9707 43.3035 18.156 42.4016H21.3909C21.4897 42.4022 21.5876 42.3832 21.6791 42.3457C21.7705 42.3081 21.8536 42.2529 21.9235 42.1831C21.9934 42.1132 22.0488 42.0302 22.0864 41.9389C22.1241 41.8475 22.1432 41.7496 22.1428 41.6508V35.2527H22.1741C22.201 35.2527 22.2234 35.2381 22.2491 35.2348C22.4836 35.2764 22.7206 35.3033 22.9585 35.3153C25.4806 35.3153 27.0158 34.5522 27.9602 33.4288V44.7088C27.0605 44.9044 26.2653 45.4268 25.7288 46.175C25.1923 46.9233 24.9525 47.844 25.056 48.7588C25.1594 49.6737 25.5987 50.5176 26.2888 51.1271C26.9789 51.7366 27.8706 52.0684 28.7912 52.058C29.7119 52.0477 30.5959 51.6961 31.2721 51.0713C31.9484 50.4464 32.3686 49.5929 32.4516 48.6759C32.5345 47.759 32.2741 46.8439 31.721 46.1079C31.1678 45.3719 30.3612 44.8674 29.4573 44.692V33.3225C30.3927 34.503 31.9402 35.3153 34.5384 35.3153C34.7771 35.3033 35.0147 35.2764 35.2501 35.2348C35.2758 35.2348 35.2982 35.2516 35.325 35.2527H35.3463V41.6508C35.3463 41.749 35.3657 41.8463 35.4033 41.9371C35.4409 42.0278 35.4961 42.1103 35.5656 42.1797C35.6351 42.2491 35.7177 42.3041 35.8085 42.3416C35.8993 42.3791 35.9966 42.3984 36.0949 42.3982H39.3286C39.5139 43.3001 40.0273 44.1012 40.7694 44.6462C41.5116 45.1912 42.4296 45.4414 43.3456 45.3483C44.2616 45.2551 45.1105 44.8254 45.7278 44.1422C46.3451 43.459 46.6868 42.571 46.6868 41.6502C46.6868 40.7295 46.3451 39.8415 45.7278 39.1583C45.1105 38.4751 44.2616 38.0453 43.3456 37.9521C42.4296 37.859 41.5116 38.1092 40.7694 38.6542C40.0273 39.1992 39.5139 40.0003 39.3286 40.9022H36.8468V35.2661C43.8525 35.1967 47.0381 32.923 47.63 32.4441C49.2916 31.7258 50.4721 30.1581 50.8391 28.1217C51.3807 25.1251 49.3521 22.9387 48.2611 22.0044ZM14.515 43.8707C14.0756 43.871 13.646 43.7409 13.2806 43.4969C12.9152 43.2529 12.6303 42.906 12.462 42.5001C12.2938 42.0942 12.2497 41.6476 12.3354 41.2166C12.4211 40.7857 12.6326 40.3898 12.9433 40.0791C13.254 39.7684 13.6499 39.5568 14.0808 39.4712C14.5118 39.3855 14.9585 39.4296 15.3644 39.5978C15.7702 39.7661 16.1171 40.0509 16.3611 40.4164C16.6051 40.7818 16.7352 41.2114 16.735 41.6508C16.7341 42.2393 16.4999 42.8034 16.0838 43.2195C15.6676 43.6357 15.1035 43.8699 14.515 43.8707ZM42.973 39.4297C43.4123 39.4295 43.8419 39.5595 44.2073 39.8035C44.5727 40.0474 44.8575 40.3942 45.0258 40.8C45.1941 41.2058 45.2382 41.6525 45.1526 42.0834C45.0671 42.5143 44.8556 42.9102 44.545 43.2209C44.2345 43.5317 43.8387 43.7433 43.4078 43.8291C42.9769 43.9149 42.5303 43.871 42.1244 43.7029C41.7185 43.5348 41.3715 43.2501 41.1274 42.8849C40.8833 42.5196 40.753 42.0901 40.753 41.6508C40.7533 41.062 40.9872 40.4974 41.4035 40.0809C41.8197 39.6645 42.3842 39.4303 42.973 39.4297ZM44.5596 11.2783C42.8454 10.8956 41.026 11.2223 39.6262 11.7258C39.6587 10.5185 39.4819 8.7282 38.3954 7.33065C38.3372 7.25568 38.26 7.20197 38.1985 7.13147C39.4036 7.22994 40.8615 7.52534 41.985 8.3086C43.4709 9.34809 44.1949 10.4558 44.5596 11.2783ZM15.5064 8.31084C16.6253 7.52758 18.0799 7.23665 19.2906 7.13707C19.2291 7.20644 19.153 7.25903 19.0959 7.334C18.0083 8.73156 17.8315 10.5207 17.8651 11.7281C16.4664 11.2223 14.6459 10.8967 12.9294 11.2805C13.2931 10.457 14.017 9.34921 15.5064 8.31084ZM22.954 33.8227C21.6202 33.8227 20.6893 33.3247 20.3335 32.4206C19.9888 31.5445 20.2451 30.4065 20.9299 29.7676C21.5352 29.2082 22.3408 29.1399 23.2573 29.5796C23.4362 29.6657 23.642 29.6772 23.8294 29.6115C24.0168 29.5458 24.1704 29.4084 24.2565 29.2294C24.3425 29.0505 24.354 28.8447 24.2883 28.6573C24.2226 28.4699 24.0852 28.3163 23.9062 28.2302C23.4342 28.0086 22.9249 27.8773 22.4046 27.8431C22.6284 27.4462 22.7842 27.0146 22.8656 26.5663C22.8803 26.4692 22.8757 26.3701 22.8521 26.2748C22.8286 26.1794 22.7864 26.0896 22.7281 26.0106C22.6698 25.9315 22.5965 25.8647 22.5124 25.8139C22.4283 25.7632 22.335 25.7295 22.2379 25.7148C22.1408 25.7001 22.0417 25.7047 21.9463 25.7283C21.851 25.7519 21.7612 25.794 21.6821 25.8523C21.6031 25.9106 21.5363 25.9839 21.4855 26.068C21.4348 26.1521 21.4011 26.2454 21.3864 26.3426C21.2644 27.1471 20.3793 28.2134 20.0526 28.5569C20.0459 28.5648 20.0437 28.5748 20.0358 28.5838C19.9967 28.6174 19.9485 28.633 19.9094 28.6688C18.7815 29.7173 18.3753 31.5244 18.9404 32.9656C19.0602 33.2407 19.2151 33.499 19.4014 33.7343C16.7551 33.591 14.7813 33.1088 13.3938 32.6041C14.2019 32.3358 14.9244 31.8578 15.4873 31.2189C15.6084 31.0692 15.667 30.8785 15.651 30.6866C15.6349 30.4947 15.5454 30.3164 15.4012 30.1889C15.2569 30.0614 15.069 29.9944 14.8766 30.002C14.6842 30.0096 14.5021 30.0912 14.3684 30.2297C13.9484 30.7079 13.4009 31.0566 12.79 31.235C12.1791 31.4133 11.53 31.4139 10.9187 31.2368C9.47863 30.8362 8.43578 29.5707 8.12136 27.8531C7.71182 25.5817 9.39471 23.8317 10.2384 23.1133C10.6781 23.496 11.3573 24.0163 12.1126 24.3061C12.1987 24.3389 12.2901 24.356 12.3823 24.3564C12.5569 24.3561 12.7259 24.2948 12.86 24.183C12.9942 24.0713 13.0851 23.9161 13.1169 23.7445C13.1488 23.5728 13.1196 23.3954 13.0345 23.243C12.9494 23.0905 12.8137 22.9726 12.6508 22.9096C11.7176 22.5527 10.8415 21.6329 10.8303 21.6195C10.8191 21.6061 10.8214 21.6195 10.818 21.6106C10.8162 21.607 10.8139 21.6036 10.8113 21.6005C10.6994 21.4886 8.00275 18.7147 10.4946 14.7268C12.9473 10.8016 18.1616 13.4703 18.3843 13.5855C18.5096 13.6511 18.6509 13.6798 18.7918 13.6684C18.9328 13.657 19.0676 13.6059 19.1807 13.521C19.2938 13.4361 19.3806 13.3209 19.4309 13.1888C19.4812 13.0566 19.4931 12.9129 19.4652 12.7743C19.4652 12.7463 18.9214 9.99372 20.2764 8.25153C20.9623 7.37093 22.0522 6.88866 23.5213 6.81593C24.9357 6.73761 26.0557 7.11133 26.7976 7.90578C27.7375 8.91954 27.9613 10.4435 27.9893 11.4696C27.9719 11.5241 27.9606 11.5804 27.9557 11.6374C27.9557 12.9936 27.5775 13.9279 26.8625 14.3397C26.2224 14.7112 25.3732 14.6183 24.8999 14.3397C24.1647 13.9145 23.7451 13.4624 23.6869 13.0339C23.6254 12.574 23.9902 12.1846 24.0092 12.1656C24.1485 12.0262 24.2272 11.8374 24.2283 11.6403C24.2293 11.4432 24.1525 11.2536 24.0146 11.1127C23.8767 10.9719 23.6888 10.8911 23.4917 10.888C23.2946 10.8848 23.1042 10.9595 22.9619 11.0959C22.8679 11.1876 22.0544 12.0168 22.1999 13.2073C22.3117 14.1349 22.9708 14.9517 24.1502 15.6343C24.6866 15.9284 25.2895 16.0802 25.9013 16.0752C26.5007 16.0789 27.0904 15.9245 27.611 15.6276C27.731 15.5578 27.8461 15.48 27.9557 15.3948V22.4554C27.7911 22.2686 27.6151 22.0922 27.4287 21.9272C25.8398 20.5565 23.5504 19.9758 20.6031 20.204C19.6713 20.2624 18.7668 20.542 17.9647 21.0198C17.9244 21.0078 17.8833 20.9991 17.8416 20.994C17.8226 20.994 15.9886 20.9481 14.8428 19.0437C14.2364 18.0367 14.8764 16.582 14.882 16.5664C14.9367 16.3917 14.9256 16.2031 14.8506 16.0361C14.7757 15.8691 14.6422 15.7353 14.4754 15.6601C14.3085 15.5849 14.1199 15.5734 13.9451 15.6278C13.7704 15.6822 13.6216 15.7988 13.527 15.9554C13.4878 16.0438 12.5501 18.1385 13.5661 19.8247C14.2387 20.9797 15.3148 21.845 16.5873 22.2539C15.3441 23.8205 15.0207 25.9207 15.0935 27.2769C15.1043 27.4676 15.1876 27.6469 15.3264 27.7781C15.4651 27.9094 15.6488 27.9827 15.8398 27.9829H15.8767C15.9749 27.9776 16.0711 27.953 16.1598 27.9105C16.2485 27.8679 16.3279 27.8083 16.3935 27.735C16.4591 27.6618 16.5096 27.5762 16.542 27.4834C16.5745 27.3906 16.5884 27.2923 16.5828 27.1941C16.5705 26.9848 16.3478 22.0469 20.7229 21.7057C27.4264 21.1854 27.9322 25.5403 27.9613 25.8066V26.9423C27.9613 31.0958 27.6077 33.8193 22.954 33.8193V33.8227ZM30.9656 48.3398C30.9652 48.779 30.8345 49.2082 30.5902 49.5732C30.3459 49.9381 29.9989 50.2225 29.593 50.3902C29.1871 50.558 28.7406 50.6017 28.3099 50.5157C27.8791 50.4297 27.4836 50.218 27.1732 49.9073C26.8628 49.5966 26.6515 49.2008 26.566 48.77C26.4804 48.3393 26.5246 47.8928 26.6927 47.4871C26.8609 47.0813 27.1456 46.7346 27.5108 46.4906C27.876 46.2467 28.3053 46.1165 28.7445 46.1165C29.3332 46.1171 29.8977 46.3511 30.314 46.7673C30.7304 47.1834 30.9647 47.7477 30.9656 48.3364V48.3398ZM49.3666 27.8632C49.0578 29.5796 48.0138 30.844 46.5748 31.2457C45.9633 31.4223 45.3143 31.4214 44.7033 31.2431C44.0923 31.0648 43.5446 30.7164 43.124 30.2387C42.9903 30.1002 42.8082 30.0186 42.6158 30.011C42.4234 30.0034 42.2355 30.0703 42.0912 30.1978C41.947 30.3254 41.8575 30.5037 41.8414 30.6956C41.8254 30.8874 41.884 31.0781 42.0051 31.2278C42.5686 31.8597 43.2882 32.3324 44.0919 32.5985C42.7033 33.1021 40.7295 33.5843 38.0877 33.7276C38.2738 33.4929 38.4284 33.2348 38.5476 32.96C39.1138 31.5188 38.7076 29.715 37.5786 28.6632C37.5405 28.6274 37.4924 28.6118 37.4532 28.5782C37.4454 28.5692 37.4432 28.5592 37.4353 28.5513C37.1053 28.2078 36.2235 27.1415 36.1027 26.337C36.0707 26.142 35.964 25.9672 35.8052 25.8496C35.6465 25.732 35.4481 25.6808 35.2523 25.707C35.056 25.7365 34.8795 25.8428 34.7615 26.0025C34.6436 26.1622 34.5939 26.3622 34.6234 26.5585C34.7045 27.0068 34.8599 27.4383 35.0833 27.8352C34.5633 27.8689 34.0543 28.0003 33.5828 28.2224C33.4031 28.3078 33.2648 28.4612 33.1981 28.6487C33.1315 28.8362 33.1421 29.0425 33.2276 29.2221C33.313 29.4018 33.4664 29.5402 33.6539 29.6068C33.8414 29.6735 34.0477 29.6629 34.2273 29.5774C35.1426 29.1377 35.9494 29.2014 36.5536 29.7654C37.2395 30.4009 37.4958 31.5423 37.15 32.4184C36.7953 33.3225 35.8644 33.8204 34.5295 33.8204C29.878 33.8204 29.53 31.0969 29.53 26.9434V25.8133C29.6868 24.7475 30.2218 23.7736 31.0372 23.0697C32.3128 21.9686 34.2341 21.511 36.7595 21.7057C41.1155 22.0413 40.9108 26.9859 40.8996 27.1963C40.8898 27.3939 40.9588 27.5872 41.0913 27.734C41.2239 27.8809 41.4092 27.9691 41.6068 27.9796H41.6482C41.839 27.9793 42.0226 27.906 42.1611 27.7747C42.2997 27.6434 42.3828 27.4641 42.3934 27.2735C42.4683 25.9174 42.1427 23.8149 40.8985 22.2506C42.171 21.8418 43.2472 20.9765 43.9196 19.8214C44.9356 18.1351 43.9979 16.0405 43.9588 15.9521C43.8759 15.7722 43.725 15.6324 43.5393 15.5635C43.3535 15.4946 43.148 15.5022 42.9678 15.5845C42.7876 15.6668 42.6474 15.8172 42.5779 16.0027C42.5084 16.1882 42.5153 16.3937 42.597 16.5742C42.6037 16.5888 43.2415 18.0479 42.6373 19.0493C41.5049 20.9258 39.709 20.9974 39.6374 20.9996C39.5952 21.0045 39.5536 21.0134 39.5132 21.0265C38.7114 20.5478 37.8068 20.2678 36.8748 20.2096C33.9342 19.9803 31.6448 20.5621 30.0559 21.9328C29.8685 22.0979 29.6917 22.2746 29.5267 22.4621V15.3971C29.638 15.483 29.7546 15.5618 29.8758 15.6332C30.3964 15.9301 30.9862 16.0845 31.5855 16.0808C32.1976 16.0856 32.8008 15.9339 33.3378 15.6399C34.516 14.9573 35.1706 14.1405 35.287 13.2129C35.4324 12.0224 34.6156 11.1988 34.525 11.1015C34.3825 10.963 34.1909 10.8869 33.9923 10.8897C33.7937 10.8925 33.6043 10.9741 33.4659 11.1166C33.3275 11.259 33.2513 11.4506 33.2541 11.6492C33.2569 11.8479 33.3386 12.0372 33.481 12.1757C33.481 12.1757 33.857 12.5718 33.7999 13.0294C33.7473 13.4613 33.3277 13.9156 32.5881 14.3453C32.1125 14.6194 31.2644 14.7112 30.6244 14.3453C29.9093 13.9335 29.5311 13.0026 29.5311 11.643C29.5266 11.5832 29.5145 11.5242 29.4953 11.4674C29.5267 10.4603 29.7449 8.93073 30.6926 7.91249C31.4311 7.11693 32.55 6.7432 33.9677 6.82153C35.4313 6.89314 36.5201 7.381 37.2037 8.25153C38.5565 9.98253 38.0273 12.753 38.0217 12.781C37.9944 12.9194 38.0068 13.0628 38.0574 13.1945C38.108 13.3262 38.1947 13.441 38.3076 13.5256C38.4206 13.6102 38.555 13.6612 38.6957 13.6728C38.8363 13.6844 38.9773 13.6561 39.1026 13.5911C39.3264 13.4792 44.5373 10.8027 46.9922 14.7324C49.483 18.7203 46.7908 21.4897 46.6767 21.6027C46.6767 21.6027 46.6767 21.6128 46.6677 21.6162C46.6588 21.6195 46.6599 21.6161 46.6565 21.6251C46.4137 21.8836 45.6159 22.6165 44.8349 22.9175C44.672 22.9804 44.5363 23.0983 44.4512 23.2508C44.3661 23.4032 44.3369 23.5806 44.3688 23.7523C44.4007 23.924 44.4915 24.0791 44.6257 24.1909C44.7598 24.3026 44.9288 24.364 45.1034 24.3643C45.1956 24.3638 45.287 24.3468 45.3731 24.3139C46.125 24.0241 46.8076 23.5038 47.2462 23.1211C48.0932 23.8339 49.7806 25.5839 49.3666 27.8565V27.8632Z" fill="#F7A733"/>
</g>
</svg>
