<svg width="121" height="52" viewBox="0 0 121 52" fill="none" xmlns="http://www.w3.org/2000/svg">
<rect x="0.280151" width="120" height="51.2586" rx="10" fill="url(#paint0_linear_327_1349)"/>
<path d="M17.7538 19.9279V30.6293H15.909V19.9279H17.7538ZM21.6272 24.3746V30.6293H19.8559V22.6767H21.5243L21.6272 24.3746ZM21.3112 26.359L20.7379 26.3517C20.7428 25.7882 20.8212 25.2712 20.9731 24.8008C21.1299 24.3305 21.3455 23.9262 21.6199 23.5881C21.8992 23.25 22.2323 22.9903 22.6194 22.809C23.0065 22.6228 23.4377 22.5297 23.913 22.5297C24.2952 22.5297 24.6407 22.5836 24.9493 22.6914C25.2629 22.7943 25.53 22.9634 25.7505 23.1986C25.9759 23.4338 26.1474 23.74 26.265 24.1173C26.3826 24.4897 26.4414 24.9478 26.4414 25.4917V30.6293H24.6627V25.4844C24.6627 25.1022 24.6064 24.8008 24.4937 24.5804C24.3859 24.355 24.2266 24.1957 24.0159 24.1026C23.8101 24.0046 23.5529 23.9556 23.2442 23.9556C22.9404 23.9556 22.6684 24.0193 22.4283 24.1467C22.1882 24.2741 21.9849 24.4481 21.8183 24.6686C21.6566 24.889 21.5317 25.1438 21.4435 25.4329C21.3553 25.722 21.3112 26.0307 21.3112 26.359ZM30.1457 22.6767V30.6293H28.367V22.6767H30.1457ZM28.2494 20.5894C28.2494 20.3199 28.3376 20.0969 28.514 19.9205C28.6953 19.7392 28.9452 19.6486 29.2637 19.6486C29.5773 19.6486 29.8248 19.7392 30.0061 19.9205C30.1874 20.0969 30.278 20.3199 30.278 20.5894C30.278 20.854 30.1874 21.0745 30.0061 21.2509C29.8248 21.4273 29.5773 21.5155 29.2637 21.5155C28.9452 21.5155 28.6953 21.4273 28.514 21.2509C28.3376 21.0745 28.2494 20.854 28.2494 20.5894ZM35.3347 29.3651C35.6238 29.3651 35.8835 29.3088 36.1138 29.1961C36.349 29.0785 36.5376 28.9168 36.6797 28.711C36.8267 28.5052 36.9076 28.2675 36.9223 27.998H38.5907C38.5809 28.5125 38.429 28.9805 38.135 29.4019C37.841 29.8233 37.4515 30.1589 36.9664 30.4088C36.4813 30.6538 35.9447 30.7763 35.3568 30.7763C34.7492 30.7763 34.22 30.6734 33.7692 30.4676C33.3184 30.2569 32.9436 29.9678 32.6447 29.6003C32.3458 29.2328 32.1204 28.809 31.9685 28.3288C31.8215 27.8486 31.748 27.3341 31.748 26.7853V26.5281C31.748 25.9793 31.8215 25.4648 31.9685 24.9846C32.1204 24.4995 32.3458 24.0732 32.6447 23.7057C32.9436 23.3382 33.3184 23.0516 33.7692 22.8458C34.22 22.6351 34.7467 22.5297 35.3494 22.5297C35.9864 22.5297 36.545 22.6571 37.0252 22.9119C37.5054 23.1618 37.8827 23.5122 38.1571 23.963C38.4364 24.4089 38.5809 24.9282 38.5907 25.5211H36.9223C36.9076 25.2271 36.8341 24.9625 36.7018 24.7273C36.5744 24.4873 36.3931 24.2962 36.1579 24.1541C35.9276 24.012 35.6508 23.9409 35.3274 23.9409C34.9697 23.9409 34.6732 24.0144 34.438 24.1614C34.2028 24.3035 34.0191 24.4995 33.8868 24.7494C33.7545 24.9944 33.6589 25.2712 33.6001 25.5799C33.5462 25.8837 33.5193 26.1998 33.5193 26.5281V26.7853C33.5193 27.1136 33.5462 27.4321 33.6001 27.7408C33.654 28.0495 33.7471 28.3263 33.8794 28.5713C34.0166 28.8114 34.2028 29.005 34.438 29.152C34.6732 29.2941 34.9721 29.3651 35.3347 29.3651ZM41.8467 22.6767V30.6293H40.068V22.6767H41.8467ZM39.9504 20.5894C39.9504 20.3199 40.0386 20.0969 40.215 19.9205C40.3963 19.7392 40.6462 19.6486 40.9647 19.6486C41.2783 19.6486 41.5257 19.7392 41.707 19.9205C41.8883 20.0969 41.979 20.3199 41.979 20.5894C41.979 20.854 41.8883 21.0745 41.707 21.2509C41.5257 21.4273 41.2783 21.5155 40.9647 21.5155C40.6462 21.5155 40.3963 21.4273 40.215 21.2509C40.0386 21.0745 39.9504 20.854 39.9504 20.5894ZM48.2705 29.0344V25.2418C48.2705 24.9576 48.219 24.7126 48.1161 24.5069C48.0132 24.3011 47.8564 24.1418 47.6457 24.0291C47.4399 23.9164 47.1802 23.8601 46.8666 23.8601C46.5776 23.8601 46.3277 23.9091 46.117 24.0071C45.9063 24.1051 45.7421 24.2374 45.6245 24.404C45.5069 24.5706 45.4481 24.7592 45.4481 24.9699H43.6842C43.6842 24.6563 43.7601 24.3525 43.912 24.0585C44.0639 23.7645 44.2844 23.5024 44.5735 23.2721C44.8626 23.0418 45.208 22.8605 45.6098 22.7282C46.0116 22.5959 46.4624 22.5297 46.9622 22.5297C47.56 22.5297 48.0892 22.6302 48.5498 22.8311C49.0153 23.032 49.3803 23.3358 49.6449 23.7425C49.9144 24.1443 50.0491 24.649 50.0491 25.2565V28.7918C50.0491 29.1544 50.0736 29.4803 50.1226 29.7694C50.1765 30.0536 50.2525 30.301 50.3505 30.5117V30.6293H48.5351C48.4518 30.4382 48.3856 30.1956 48.3366 29.9017C48.2925 29.6028 48.2705 29.3137 48.2705 29.0344ZM48.5277 25.7931L48.5424 26.8882H47.2709C46.9426 26.8882 46.6535 26.9201 46.4036 26.9838C46.1537 27.0426 45.9455 27.1308 45.7789 27.2484C45.6123 27.366 45.4873 27.508 45.404 27.6746C45.3207 27.8412 45.2791 28.0299 45.2791 28.2406C45.2791 28.4513 45.3281 28.6448 45.4261 28.8212C45.5241 28.9927 45.6662 29.1275 45.8524 29.2255C46.0435 29.3235 46.2738 29.3725 46.5433 29.3725C46.9058 29.3725 47.2219 29.299 47.4914 29.152C47.7658 29.0001 47.9814 28.8163 48.1382 28.6007C48.295 28.3802 48.3783 28.172 48.3881 27.976L48.9614 28.7624C48.9026 28.9633 48.8021 29.1789 48.66 29.4092C48.5179 29.6395 48.3317 29.86 48.1014 30.0707C47.876 30.2765 47.6041 30.4455 47.2856 30.5778C46.972 30.7101 46.6094 30.7763 46.1978 30.7763C45.6784 30.7763 45.2154 30.6734 44.8087 30.4676C44.402 30.2569 44.0835 29.9752 43.8532 29.6224C43.6229 29.2647 43.5078 28.8604 43.5078 28.4096C43.5078 27.9882 43.5862 27.6158 43.743 27.2925C43.9047 26.9642 44.1398 26.6898 44.4485 26.4693C44.7621 26.2488 45.1443 26.0822 45.5951 25.9695C46.0459 25.8519 46.5604 25.7931 47.1386 25.7931H48.5277ZM53.68 24.1908V30.6293H51.9087V22.6767H53.5991L53.68 24.1908ZM56.1128 22.6253L56.0981 24.2717C55.9903 24.2521 55.8727 24.2374 55.7453 24.2276C55.6228 24.2178 55.5003 24.2129 55.3778 24.2129C55.074 24.2129 54.807 24.257 54.5767 24.3452C54.3464 24.4285 54.1528 24.551 53.996 24.7126C53.8441 24.8694 53.7265 25.0605 53.6432 25.2859C53.5599 25.5113 53.5109 25.7637 53.4962 26.043L53.092 26.0724C53.092 25.5726 53.141 25.1095 53.239 24.6833C53.337 24.257 53.484 23.8821 53.68 23.5587C53.8809 23.2353 54.1308 22.983 54.4297 22.8017C54.7335 22.6204 55.0838 22.5297 55.4807 22.5297C55.5885 22.5297 55.7036 22.5395 55.8261 22.5591C55.9535 22.5787 56.0491 22.6008 56.1128 22.6253ZM66.7774 27.8731C66.7774 27.6526 66.7431 27.4566 66.6745 27.2851C66.6108 27.1136 66.4957 26.9568 66.3291 26.8147C66.1625 26.6726 65.9273 26.5354 65.6235 26.4031C65.3246 26.2659 64.9424 26.1263 64.4769 25.9842C63.9673 25.8274 63.4969 25.6534 63.0657 25.4623C62.6395 25.2663 62.2671 25.0409 61.9486 24.7861C61.6301 24.5265 61.3826 24.23 61.2062 23.8968C61.0298 23.5587 60.9416 23.1692 60.9416 22.7282C60.9416 22.2921 61.0323 21.8952 61.2136 21.5375C61.3998 21.1798 61.6619 20.8711 62 20.6114C62.343 20.3468 62.7473 20.1435 63.2127 20.0014C63.6782 19.8544 64.1927 19.7809 64.7562 19.7809C65.55 19.7809 66.2335 19.9279 66.8068 20.2219C67.385 20.5159 67.8285 20.9103 68.1372 21.4052C68.4508 21.9001 68.6075 22.4464 68.6075 23.0442H66.7774C66.7774 22.6914 66.7015 22.3803 66.5496 22.1108C66.4026 21.8364 66.1772 21.6208 65.8734 21.464C65.5745 21.3072 65.1948 21.2288 64.7342 21.2288C64.2981 21.2288 63.9355 21.295 63.6464 21.4273C63.3573 21.5596 63.1417 21.7384 62.9996 21.9638C62.8575 22.1892 62.7865 22.444 62.7865 22.7282C62.7865 22.9291 62.833 23.1128 62.9261 23.2794C63.0192 23.4411 63.1613 23.593 63.3524 23.7351C63.5435 23.8723 63.7836 24.0022 64.0727 24.1247C64.3618 24.2472 64.7023 24.3648 65.0943 24.4775C65.6872 24.6539 66.2041 24.8498 66.6451 25.0654C67.0861 25.2761 67.4536 25.5162 67.7476 25.7857C68.0416 26.0552 68.2621 26.3615 68.4091 26.7045C68.5561 27.0426 68.6296 27.4272 68.6296 27.8584C68.6296 28.3092 68.5389 28.7159 68.3577 29.0785C68.1764 29.4362 67.9167 29.7424 67.5786 29.9972C67.2454 30.2471 66.8436 30.4406 66.3732 30.5778C65.9077 30.7101 65.3883 30.7763 64.815 30.7763C64.3005 30.7763 63.7934 30.7077 63.2936 30.5705C62.7987 30.4333 62.3479 30.225 61.9412 29.9458C61.5345 29.6616 61.2111 29.3088 60.971 28.8874C60.7309 28.4611 60.6109 27.9637 60.6109 27.3954H62.4557C62.4557 27.7432 62.5145 28.0397 62.6321 28.2847C62.7546 28.5297 62.9237 28.7306 63.1392 28.8874C63.3548 29.0393 63.6047 29.152 63.8889 29.2255C64.178 29.299 64.4867 29.3357 64.815 29.3357C65.2462 29.3357 65.6064 29.2745 65.8954 29.152C66.1894 29.0295 66.4099 28.858 66.5569 28.6375C66.7039 28.417 66.7774 28.1622 66.7774 27.8731ZM73.5908 30.7763C73.0028 30.7763 72.4711 30.6807 71.9958 30.4896C71.5254 30.2936 71.1237 30.0217 70.7905 29.6738C70.4622 29.3259 70.2098 28.9168 70.0334 28.4464C69.857 27.976 69.7688 27.4688 69.7688 26.925V26.631C69.7688 26.0087 69.8595 25.4452 70.0408 24.9405C70.2221 24.4358 70.4744 24.0046 70.7978 23.6469C71.1212 23.2843 71.5034 23.0075 71.9444 22.8164C72.3854 22.6253 72.8631 22.5297 73.3776 22.5297C73.946 22.5297 74.4433 22.6253 74.8696 22.8164C75.2959 23.0075 75.6487 23.277 75.928 23.6249C76.2122 23.9679 76.4229 24.377 76.5601 24.8523C76.7022 25.3276 76.7732 25.8519 76.7732 26.4252V27.1822H70.6288V25.9107H75.024V25.771C75.0142 25.4525 74.9505 25.1536 74.8329 24.8743C74.7202 24.5951 74.5462 24.3697 74.311 24.1982C74.0758 24.0267 73.7623 23.9409 73.3703 23.9409C73.0763 23.9409 72.8141 24.0046 72.5838 24.132C72.3584 24.2545 72.1698 24.4334 72.0179 24.6686C71.866 24.9037 71.7484 25.1879 71.6651 25.5211C71.5867 25.8494 71.5475 26.2194 71.5475 26.631V26.925C71.5475 27.2729 71.594 27.5962 71.6871 27.8951C71.7851 28.1891 71.9272 28.4464 72.1134 28.6669C72.2996 28.8874 72.525 29.0613 72.7896 29.1887C73.0542 29.3112 73.3556 29.3725 73.6937 29.3725C74.1199 29.3725 74.4997 29.2867 74.8329 29.1152C75.1661 28.9437 75.4552 28.7012 75.7002 28.3876L76.6336 29.2916C76.4621 29.5415 76.2392 29.7816 75.9648 30.0119C75.6904 30.2373 75.3547 30.421 74.9578 30.5631C74.5658 30.7052 74.1101 30.7763 73.5908 30.7763ZM81.4037 29.3651C81.6928 29.3651 81.9525 29.3088 82.1828 29.1961C82.4179 29.0785 82.6066 28.9168 82.7487 28.711C82.8957 28.5052 82.9765 28.2675 82.9912 27.998H84.6597C84.6499 28.5125 84.498 28.9805 84.204 29.4019C83.91 29.8233 83.5204 30.1589 83.0353 30.4088C82.5502 30.6538 82.0137 30.7763 81.4257 30.7763C80.8181 30.7763 80.2889 30.6734 79.8381 30.4676C79.3874 30.2569 79.0125 29.9678 78.7136 29.6003C78.4147 29.2328 78.1893 28.809 78.0374 28.3288C77.8904 27.8486 77.8169 27.3341 77.8169 26.7853V26.5281C77.8169 25.9793 77.8904 25.4648 78.0374 24.9846C78.1893 24.4995 78.4147 24.0732 78.7136 23.7057C79.0125 23.3382 79.3874 23.0516 79.8381 22.8458C80.2889 22.6351 80.8157 22.5297 81.4184 22.5297C82.0554 22.5297 82.6139 22.6571 83.0941 22.9119C83.5743 23.1618 83.9516 23.5122 84.226 23.963C84.5053 24.4089 84.6499 24.9282 84.6597 25.5211H82.9912C82.9765 25.2271 82.903 24.9625 82.7707 24.7273C82.6433 24.4873 82.462 24.2962 82.2268 24.1541C81.9966 24.012 81.7197 23.9409 81.3963 23.9409C81.0386 23.9409 80.7422 24.0144 80.507 24.1614C80.2718 24.3035 80.088 24.4995 79.9557 24.7494C79.8234 24.9944 79.7279 25.2712 79.6691 25.5799C79.6152 25.8837 79.5882 26.1998 79.5882 26.5281V26.7853C79.5882 27.1136 79.6152 27.4321 79.6691 27.7408C79.723 28.0495 79.8161 28.3263 79.9484 28.5713C80.0856 28.8114 80.2718 29.005 80.507 29.152C80.7422 29.2941 81.0411 29.3651 81.4037 29.3651ZM87.9157 22.6767V30.6293H86.137V22.6767H87.9157ZM86.0194 20.5894C86.0194 20.3199 86.1076 20.0969 86.284 19.9205C86.4653 19.7392 86.7152 19.6486 87.0337 19.6486C87.3473 19.6486 87.5947 19.7392 87.776 19.9205C87.9573 20.0969 88.0479 20.3199 88.0479 20.5894C88.0479 20.854 87.9573 21.0745 87.776 21.2509C87.5947 21.4273 87.3473 21.5155 87.0337 21.5155C86.7152 21.5155 86.4653 21.4273 86.284 21.2509C86.1076 21.0745 86.0194 20.854 86.0194 20.5894ZM89.5179 26.7412V26.5722C89.5179 25.9989 89.6012 25.4672 89.7678 24.9772C89.9344 24.4824 90.1745 24.0536 90.4881 23.691C90.8066 23.3235 91.1937 23.0393 91.6494 22.8384C92.11 22.6326 92.6294 22.5297 93.2075 22.5297C93.7906 22.5297 94.31 22.6326 94.7657 22.8384C95.2263 23.0393 95.6159 23.3235 95.9343 23.691C96.2528 24.0536 96.4954 24.4824 96.662 24.9772C96.8286 25.4672 96.9119 25.9989 96.9119 26.5722V26.7412C96.9119 27.3145 96.8286 27.8461 96.662 28.3361C96.4954 28.8261 96.2528 29.2549 95.9343 29.6224C95.6159 29.985 95.2288 30.2691 94.7731 30.4749C94.3174 30.6758 93.8004 30.7763 93.2222 30.7763C92.6392 30.7763 92.1173 30.6758 91.6567 30.4749C91.201 30.2691 90.8139 29.985 90.4954 29.6224C90.177 29.2549 89.9344 28.8261 89.7678 28.3361C89.6012 27.8461 89.5179 27.3145 89.5179 26.7412ZM91.2892 26.5722V26.7412C91.2892 27.0989 91.326 27.437 91.3995 27.7555C91.473 28.074 91.5881 28.3533 91.7449 28.5934C91.9017 28.8335 92.1026 29.0221 92.3476 29.1593C92.5926 29.2965 92.8842 29.3651 93.2222 29.3651C93.5505 29.3651 93.8347 29.2965 94.0748 29.1593C94.3198 29.0221 94.5207 28.8335 94.6775 28.5934C94.8343 28.3533 94.9495 28.074 95.023 27.7555C95.1014 27.437 95.1406 27.0989 95.1406 26.7412V26.5722C95.1406 26.2194 95.1014 25.8862 95.023 25.5726C94.9495 25.2541 94.8319 24.9723 94.6702 24.7273C94.5134 24.4824 94.3125 24.2913 94.0675 24.1541C93.8274 24.012 93.5407 23.9409 93.2075 23.9409C92.8744 23.9409 92.5853 24.012 92.3403 24.1541C92.1002 24.2913 91.9017 24.4824 91.7449 24.7273C91.5881 24.9723 91.473 25.2541 91.3995 25.5726C91.326 25.8862 91.2892 26.2194 91.2892 26.5722ZM92.2815 21.5522L93.7147 19.3399H95.7139L93.7147 21.5522H92.2815ZM100.153 24.3746V30.6293H98.3819V22.6767H100.05L100.153 24.3746ZM99.8371 26.359L99.2638 26.3517C99.2687 25.7882 99.3471 25.2712 99.499 24.8008C99.6558 24.3305 99.8714 23.9262 100.146 23.5881C100.425 23.25 100.758 22.9903 101.145 22.809C101.532 22.6228 101.964 22.5297 102.439 22.5297C102.821 22.5297 103.167 22.5836 103.475 22.6914C103.789 22.7943 104.056 22.9634 104.276 23.1986C104.502 23.4338 104.673 23.74 104.791 24.1173C104.909 24.4897 104.967 24.9478 104.967 25.4917V30.6293H103.189V25.4844C103.189 25.1022 103.132 24.8008 103.02 24.5804C102.912 24.355 102.753 24.1957 102.542 24.1026C102.336 24.0046 102.079 23.9556 101.77 23.9556C101.466 23.9556 101.194 24.0193 100.954 24.1467C100.714 24.2741 100.511 24.4481 100.344 24.6686C100.183 24.889 100.058 25.1438 99.9694 25.4329C99.8812 25.722 99.8371 26.0307 99.8371 26.359Z" fill="black"/>
<defs>
<linearGradient id="paint0_linear_327_1349" x1="60.2802" y1="0" x2="60.2802" y2="51.2586" gradientUnits="userSpaceOnUse">
<stop stop-color="#F8AC3F"/>
<stop offset="0.9999" stop-color="#F6A735" stop-opacity="0.44"/>
<stop offset="1" stop-color="#F7A733" stop-opacity="0"/>
</linearGradient>
</defs>
</svg>
