<svg width="176" height="85" viewBox="0 0 176 85" fill="none" xmlns="http://www.w3.org/2000/svg">
<g clip-path="url(#clip0_414_501)">
<path d="M10.2976 12.5447C10.174 12.157 10.0078 11.8097 9.79901 11.5028C9.59446 11.1918 9.34943 10.9276 9.06392 10.7102C8.77841 10.4886 8.45241 10.3203 8.08594 10.2053C7.72372 10.0902 7.32528 10.0327 6.89062 10.0327C6.15341 10.0327 5.48864 10.2223 4.89631 10.6016C4.30398 10.9808 3.83523 11.5369 3.49006 12.2699C3.14915 12.9986 2.97869 13.8913 2.97869 14.9482C2.97869 16.0092 3.15128 16.9062 3.49645 17.6392C3.84162 18.3722 4.31463 18.9283 4.91548 19.3075C5.51634 19.6868 6.20028 19.8764 6.96733 19.8764C7.67898 19.8764 8.29901 19.7315 8.82741 19.4418C9.36009 19.152 9.77131 18.7429 10.0611 18.2145C10.3551 17.6818 10.5021 17.0554 10.5021 16.3352L11.0135 16.4311H7.26776V14.8011H12.4134V16.2905C12.4134 17.3899 12.179 18.3445 11.7102 19.1541C11.2457 19.9595 10.6023 20.5817 9.77983 21.0206C8.96165 21.4595 8.02415 21.679 6.96733 21.679C5.78267 21.679 4.7429 21.4062 3.84801 20.8608C2.95739 20.3153 2.26278 19.5419 1.7642 18.5405C1.26563 17.5348 1.01634 16.3416 1.01634 14.9609C1.01634 13.9169 1.16122 12.9794 1.45099 12.1484C1.74077 11.3175 2.14773 10.6122 2.67188 10.0327C3.20028 9.44886 3.82031 9.00355 4.53196 8.69673C5.24787 8.38565 6.02983 8.23011 6.87784 8.23011C7.58523 8.23011 8.24361 8.33452 8.85298 8.54332C9.46662 8.75213 10.0121 9.04829 10.4893 9.43182C10.9709 9.81534 11.3693 10.2713 11.6847 10.7997C12 11.3239 12.2131 11.9055 12.3239 12.5447H10.2976ZM18.9988 21.6982C18.0314 21.6982 17.1983 21.4915 16.4995 21.0781C15.8049 20.6605 15.2679 20.0746 14.8887 19.3203C14.5137 18.5618 14.3262 17.6733 14.3262 16.6548C14.3262 15.6491 14.5137 14.7628 14.8887 13.9957C15.2679 13.2287 15.7963 12.63 16.4739 12.1996C17.1557 11.7692 17.9526 11.554 18.8645 11.554C19.4185 11.554 19.9554 11.6456 20.4753 11.8288C20.9952 12.0121 21.4618 12.2997 21.8752 12.6918C22.2885 13.0838 22.6145 13.593 22.8532 14.2195C23.0918 14.8416 23.2111 15.598 23.2111 16.4886V17.1662H15.4064V15.7344H21.3382C21.3382 15.2315 21.236 14.7862 21.0314 14.3984C20.8269 14.0064 20.5392 13.6974 20.1685 13.4716C19.802 13.2457 19.3716 13.1328 18.8773 13.1328C18.3404 13.1328 17.8716 13.2649 17.4711 13.5291C17.0748 13.7891 16.7679 14.13 16.5506 14.5518C16.3375 14.9695 16.231 15.4233 16.231 15.9134V17.032C16.231 17.6882 16.3461 18.2464 16.5762 18.7067C16.8105 19.1669 17.1365 19.5185 17.5542 19.7614C17.9718 20 18.4597 20.1193 19.0179 20.1193C19.3801 20.1193 19.7104 20.0682 20.0087 19.9659C20.307 19.8594 20.5648 19.7017 20.7821 19.4929C20.9995 19.2841 21.1657 19.0263 21.2807 18.7195L23.0897 19.0455C22.9448 19.5781 22.6848 20.0447 22.3098 20.4453C21.9391 20.8416 21.4725 21.1506 20.91 21.3722C20.3517 21.5895 19.7147 21.6982 18.9988 21.6982ZM29.9148 11.6818V13.2159H24.5518V11.6818H29.9148ZM25.9901 9.32955H27.9013V18.6172C27.9013 18.9879 27.9567 19.267 28.0675 19.4545C28.1783 19.6378 28.321 19.7635 28.4957 19.8317C28.6747 19.8956 28.8686 19.9276 29.0774 19.9276C29.2308 19.9276 29.3651 19.9169 29.4801 19.8956C29.5952 19.8743 29.6847 19.8572 29.7486 19.8445L30.0938 21.4233C29.983 21.4659 29.8253 21.5085 29.6207 21.5511C29.4162 21.598 29.1605 21.6236 28.8537 21.6278C28.3509 21.6364 27.8821 21.5469 27.4474 21.3594C27.0128 21.1719 26.6612 20.8821 26.3928 20.4901C26.1243 20.098 25.9901 19.6058 25.9901 19.0135V9.32955ZM41.3757 11.6818V13.2159H36.0128V11.6818H41.3757ZM37.451 9.32955H39.3622V18.6172C39.3622 18.9879 39.4176 19.267 39.5284 19.4545C39.6392 19.6378 39.782 19.7635 39.9567 19.8317C40.1357 19.8956 40.3295 19.9276 40.5384 19.9276C40.6918 19.9276 40.826 19.9169 40.9411 19.8956C41.0561 19.8743 41.1456 19.8572 41.2095 19.8445L41.5547 21.4233C41.4439 21.4659 41.2862 21.5085 41.0817 21.5511C40.8771 21.598 40.6214 21.6236 40.3146 21.6278C39.8118 21.6364 39.343 21.5469 38.9084 21.3594C38.4737 21.1719 38.1222 20.8821 37.8537 20.4901C37.5852 20.098 37.451 19.6058 37.451 19.0135V9.32955ZM45.612 15.6705V21.5H43.7008V8.40909H45.5865V13.2798H45.7079C45.938 12.7514 46.2896 12.3317 46.7626 12.0206C47.2356 11.7095 47.8535 11.554 48.6163 11.554C49.2896 11.554 49.8777 11.6925 50.3805 11.9695C50.8876 12.2464 51.2797 12.6598 51.5566 13.2095C51.8379 13.755 51.9785 14.4368 51.9785 15.255V21.5H50.0673V15.4851C50.0673 14.7649 49.8819 14.2067 49.5112 13.8104C49.1404 13.4098 48.6248 13.2095 47.9643 13.2095C47.5126 13.2095 47.1078 13.3054 46.7498 13.4972C46.3961 13.6889 46.117 13.9702 45.9125 14.3409C45.7122 14.7074 45.612 15.1506 45.612 15.6705ZM58.7605 21.6982C57.7931 21.6982 56.96 21.4915 56.2612 21.0781C55.5666 20.6605 55.0297 20.0746 54.6504 19.3203C54.2754 18.5618 54.0879 17.6733 54.0879 16.6548C54.0879 15.6491 54.2754 14.7628 54.6504 13.9957C55.0297 13.2287 55.5581 12.63 56.2356 12.1996C56.9174 11.7692 57.7143 11.554 58.6262 11.554C59.1802 11.554 59.7172 11.6456 60.237 11.8288C60.7569 12.0121 61.2235 12.2997 61.6369 12.6918C62.0502 13.0838 62.3762 13.593 62.6149 14.2195C62.8535 14.8416 62.9728 15.598 62.9728 16.4886V17.1662H55.1681V15.7344H61.1C61.1 15.2315 60.9977 14.7862 60.7931 14.3984C60.5886 14.0064 60.301 13.6974 59.9302 13.4716C59.5637 13.2457 59.1333 13.1328 58.639 13.1328C58.1021 13.1328 57.6333 13.2649 57.2328 13.5291C56.8365 13.7891 56.5297 14.13 56.3123 14.5518C56.0993 14.9695 55.9927 15.4233 55.9927 15.9134V17.032C55.9927 17.6882 56.1078 18.2464 56.3379 18.7067C56.5723 19.1669 56.8983 19.5185 57.3159 19.7614C57.7335 20 58.2214 20.1193 58.7797 20.1193C59.1419 20.1193 59.4721 20.0682 59.7704 19.9659C60.0687 19.8594 60.3265 19.7017 60.5439 19.4929C60.7612 19.2841 60.9274 19.0263 61.0424 18.7195L62.8514 19.0455C62.7065 19.5781 62.4466 20.0447 62.0716 20.4453C61.7008 20.8416 61.2342 21.1506 60.6717 21.3722C60.1135 21.5895 59.4764 21.6982 58.7605 21.6982ZM71.1163 21.5H69.0197L73.7306 8.40909H76.0126L80.7235 21.5H78.627L74.926 10.7869H74.8237L71.1163 21.5ZM71.4679 16.3736H78.269V18.0355H71.4679V16.3736ZM82.4606 25.1818V11.6818H84.3271V13.2734H84.4869C84.5977 13.0689 84.7575 12.8324 84.9663 12.5639C85.1751 12.2955 85.4648 12.0611 85.8356 11.8608C86.2063 11.6562 86.6964 11.554 87.3058 11.554C88.0984 11.554 88.8058 11.7543 89.4279 12.1548C90.0501 12.5554 90.538 13.1328 90.8917 13.8871C91.2496 14.6413 91.4286 15.549 91.4286 16.6101C91.4286 17.6712 91.2518 18.581 90.8981 19.3395C90.5444 20.0937 90.0586 20.6754 89.4407 21.0845C88.8228 21.4893 88.1175 21.6918 87.3249 21.6918C86.7283 21.6918 86.2404 21.5916 85.8612 21.3913C85.4862 21.1911 85.1921 20.9567 84.979 20.6882C84.766 20.4197 84.6019 20.1811 84.4869 19.9723H84.3718V25.1818H82.4606ZM84.3335 16.5909C84.3335 17.2812 84.4336 17.8864 84.6339 18.4062C84.8342 18.9261 85.1239 19.3331 85.5032 19.6271C85.8825 19.9169 86.3469 20.0618 86.8967 20.0618C87.4677 20.0618 87.945 19.9105 88.3285 19.608C88.712 19.3011 89.0018 18.8857 89.1978 18.3615C89.3981 17.8374 89.4982 17.2472 89.4982 16.5909C89.4982 15.9432 89.4002 15.3615 89.2042 14.8459C89.0124 14.3303 88.7227 13.9233 88.3349 13.625C87.9513 13.3267 87.4719 13.1776 86.8967 13.1776C86.3427 13.1776 85.8739 13.3203 85.4904 13.6058C85.1112 13.8913 84.8235 14.2898 84.6275 14.8011C84.4315 15.3125 84.3335 15.9091 84.3335 16.5909ZM93.57 25.1818V11.6818H95.4364V13.2734H95.5962C95.707 13.0689 95.8668 12.8324 96.0756 12.5639C96.2844 12.2955 96.5742 12.0611 96.945 11.8608C97.3157 11.6562 97.8058 11.554 98.4151 11.554C99.2077 11.554 99.9151 11.7543 100.537 12.1548C101.159 12.5554 101.647 13.1328 102.001 13.8871C102.359 14.6413 102.538 15.549 102.538 16.6101C102.538 17.6712 102.361 18.581 102.007 19.3395C101.654 20.0937 101.168 20.6754 100.55 21.0845C99.9322 21.4893 99.2269 21.6918 98.4343 21.6918C97.8377 21.6918 97.3498 21.5916 96.9705 21.3913C96.5955 21.1911 96.3015 20.9567 96.0884 20.6882C95.8754 20.4197 95.7113 20.1811 95.5962 19.9723H95.4812V25.1818H93.57ZM95.4428 16.5909C95.4428 17.2812 95.543 17.8864 95.7433 18.4062C95.9435 18.9261 96.2333 19.3331 96.6126 19.6271C96.9918 19.9169 97.4563 20.0618 98.006 20.0618C98.5771 20.0618 99.0543 19.9105 99.4379 19.608C99.8214 19.3011 100.111 18.8857 100.307 18.3615C100.507 17.8374 100.608 17.2472 100.608 16.5909C100.608 15.9432 100.51 15.3615 100.314 14.8459C100.122 14.3303 99.832 13.9233 99.4442 13.625C99.0607 13.3267 98.5813 13.1776 98.006 13.1776C97.4521 13.1776 96.9833 13.3203 96.5998 13.6058C96.2205 13.8913 95.9329 14.2898 95.7369 14.8011C95.5408 15.3125 95.4428 15.9091 95.4428 16.5909Z" fill="#D1D5DB"/>
<g clip-path="url(#clip1_414_501)">
<path d="M130 44.5H5C2.23858 44.5 0 46.7386 0 49.5V79.5C0 82.2614 2.23858 84.5 5 84.5H130C132.761 84.5 135 82.2614 135 79.5V49.5C135 46.7386 132.761 44.5 130 44.5Z" fill="black"/>
<path d="M130 45.2998C131.114 45.3011 132.181 45.744 132.968 46.5314C133.756 47.3189 134.199 48.3865 134.2 49.5V79.5C134.199 80.6135 133.756 81.6811 132.968 82.4685C132.181 83.2559 131.114 83.6989 130 83.7002H5C3.88645 83.6989 2.81888 83.256 2.0315 82.4686C1.24412 81.6811 0.801231 80.6135 0.8 79.5V49.5C0.801212 48.3864 1.24409 47.3188 2.03148 46.5314C2.81886 45.744 3.88644 45.3011 5 45.2998H130ZM130 44.5H5C3.67511 44.5039 2.40559 45.0319 1.46875 45.9688C0.531908 46.9056 0.0038781 48.1751 0 49.5L0 79.5C0.0038781 80.8249 0.531908 82.0944 1.46875 83.0312C2.40559 83.9681 3.67511 84.4961 5 84.5H130C131.325 84.4961 132.594 83.9681 133.531 83.0312C134.468 82.0944 134.996 80.8249 135 79.5V49.5C134.996 48.1751 134.468 46.9056 133.531 45.9688C132.594 45.0319 131.325 44.5039 130 44.5Z" fill="#A6A6A6"/>
<path d="M47.4184 54.7433C47.4366 55.1103 47.3799 55.4771 47.2518 55.8214C47.1237 56.1658 46.9268 56.4804 46.6732 56.7462C46.389 57.041 46.0457 57.2724 45.6659 57.4254C45.2861 57.5784 44.8783 57.6494 44.4691 57.6339C44.0573 57.6376 43.649 57.559 43.268 57.4026C42.8871 57.2462 42.5412 57.0152 42.2508 56.7233C41.9604 56.4313 41.7313 56.0842 41.5769 55.7024C41.4226 55.3207 41.3461 54.9119 41.352 54.5001C41.3462 54.0884 41.4227 53.6796 41.577 53.2978C41.7314 52.916 41.9605 52.5689 42.2509 52.277C42.5413 51.985 42.8871 51.7539 43.268 51.5975C43.649 51.441 44.0573 51.3623 44.4691 51.3658C44.8925 51.3646 45.3116 51.4502 45.7006 51.6173C46.0619 51.7638 46.3834 51.9935 46.6391 52.2877L46.1117 52.8155C45.9107 52.579 45.6581 52.3918 45.3733 52.2683C45.0885 52.1449 44.7791 52.0886 44.4691 52.1036C44.157 52.102 43.8478 52.1634 43.56 52.2841C43.2722 52.4048 43.0118 52.5824 42.7942 52.8061C42.5767 53.0299 42.4065 53.2953 42.2939 53.5863C42.1814 53.8774 42.1287 54.1882 42.1391 54.5001C42.1317 54.9673 42.2631 55.4262 42.5168 55.8186C42.7705 56.211 43.135 56.5192 43.5641 56.7041C43.9932 56.8891 44.4676 56.9425 44.927 56.8575C45.3865 56.7725 45.8104 56.5529 46.1449 56.2267C46.4528 55.895 46.6313 55.4637 46.6478 55.0113H44.4691V54.2906H47.3764C47.4039 54.44 47.4179 54.5915 47.4184 54.7433Z" fill="white"/>
<path d="M52.0277 52.2374H49.2953V54.1397H51.7592V54.8605H49.2953V56.7628H52.0277V57.5001H48.5248V51.5001H52.0277V52.2374Z" fill="white"/>
<path d="M55.2787 57.5001H54.5072V52.2374H52.8314V51.5001H56.9545V52.2374H55.2787V57.5001Z" fill="white"/>
<path d="M59.9379 57.5001V51.5001H60.7084V57.5001H59.9379Z" fill="white"/>
<path d="M64.1283 57.5001H63.3568V52.2374H61.6811V51.5001H65.8041V52.2374H64.1283V57.5001Z" fill="white"/>
<path d="M73.6093 56.7247C73.0253 57.307 72.2343 57.6339 71.4096 57.6339C70.5849 57.6339 69.7939 57.307 69.2099 56.7247C68.921 56.4321 68.6939 56.0844 68.542 55.7022C68.3902 55.32 68.3168 54.9113 68.3261 54.5001C68.3168 54.089 68.3902 53.6802 68.542 53.2981C68.6939 52.9159 68.921 52.5682 69.2099 52.2755C69.4986 51.9868 69.8413 51.7578 70.2186 51.6017C70.5958 51.4456 71.0002 51.3655 71.4085 51.3658C71.8167 51.3662 72.2209 51.4471 72.5979 51.6038C72.9749 51.7606 73.3173 51.9902 73.6054 52.2794C73.8945 52.5713 74.1221 52.9183 74.2746 53.2997C74.4271 53.6812 74.5014 54.0894 74.4931 54.5001C74.5022 54.9112 74.4286 55.3199 74.2768 55.7021C74.125 56.0842 73.898 56.432 73.6093 56.7247ZM69.7792 56.2223C70.2117 56.6541 70.7979 56.8966 71.4091 56.8966C72.0203 56.8966 72.6065 56.6541 73.039 56.2223C73.2608 55.9953 73.4343 55.7256 73.5489 55.4296C73.6636 55.1336 73.717 54.8174 73.706 54.5001C73.717 54.1829 73.6636 53.8667 73.5489 53.5707C73.4343 53.2747 73.2608 53.005 73.039 52.7779C72.6065 52.3461 72.0203 52.1036 71.4091 52.1036C70.7979 52.1036 70.2117 52.3461 69.7792 52.7779C69.5577 53.0052 69.3845 53.2749 69.2701 53.5709C69.1556 53.8669 69.1022 54.183 69.1132 54.5001C69.1022 54.8173 69.1556 55.1334 69.2701 55.4294C69.3845 55.7253 69.5577 55.9951 69.7792 56.2223Z" fill="white"/>
<path d="M75.5751 57.5001V51.5001H76.5136L79.4296 56.1676H79.4628L79.4296 55.0113V51.5001H80.2011V57.5001H79.3964L76.3456 52.6065H76.3124L76.3456 53.7628V57.5001H75.5751Z" fill="white"/>
<path d="M47.4184 54.7433C47.4366 55.1103 47.3799 55.4771 47.2518 55.8214C47.1237 56.1658 46.9268 56.4804 46.6732 56.7462C46.389 57.041 46.0457 57.2724 45.6659 57.4254C45.2861 57.5784 44.8783 57.6494 44.4691 57.6339C44.0573 57.6376 43.649 57.559 43.268 57.4026C42.8871 57.2462 42.5412 57.0152 42.2508 56.7233C41.9604 56.4313 41.7313 56.0842 41.5769 55.7024C41.4226 55.3207 41.3461 54.9119 41.352 54.5001C41.3462 54.0884 41.4227 53.6796 41.577 53.2978C41.7314 52.916 41.9605 52.5689 42.2509 52.277C42.5413 51.985 42.8871 51.7539 43.268 51.5975C43.649 51.441 44.0573 51.3623 44.4691 51.3658C44.8925 51.3646 45.3116 51.4502 45.7006 51.6173C46.0619 51.7638 46.3834 51.9935 46.6391 52.2877L46.1117 52.8155C45.9107 52.579 45.6581 52.3918 45.3733 52.2683C45.0885 52.1449 44.7791 52.0886 44.4691 52.1036C44.157 52.102 43.8478 52.1634 43.56 52.2841C43.2722 52.4048 43.0118 52.5824 42.7942 52.8061C42.5767 53.0299 42.4065 53.2953 42.2939 53.5863C42.1814 53.8774 42.1287 54.1882 42.1391 54.5001C42.1317 54.9673 42.2631 55.4262 42.5168 55.8186C42.7705 56.211 43.135 56.5192 43.5641 56.7041C43.9932 56.8891 44.4676 56.9425 44.927 56.8575C45.3865 56.7725 45.8104 56.5529 46.1449 56.2267C46.4528 55.895 46.6313 55.4637 46.6478 55.0113H44.4691V54.2906H47.3764C47.4039 54.44 47.4179 54.5915 47.4184 54.7433Z" stroke="white" stroke-width="0.2" stroke-miterlimit="10"/>
<path d="M52.0277 52.2374H49.2953V54.1397H51.7592V54.8605H49.2953V56.7628H52.0277V57.5001H48.5248V51.5001H52.0277V52.2374Z" stroke="white" stroke-width="0.2" stroke-miterlimit="10"/>
<path d="M55.2787 57.5001H54.5072V52.2374H52.8314V51.5001H56.9545V52.2374H55.2787V57.5001Z" stroke="white" stroke-width="0.2" stroke-miterlimit="10"/>
<path d="M59.9379 57.5001V51.5001H60.7084V57.5001H59.9379Z" stroke="white" stroke-width="0.2" stroke-miterlimit="10"/>
<path d="M64.1283 57.5001H63.3568V52.2374H61.6811V51.5001H65.8041V52.2374H64.1283V57.5001Z" stroke="white" stroke-width="0.2" stroke-miterlimit="10"/>
<path d="M73.6093 56.7247C73.0253 57.307 72.2343 57.6339 71.4096 57.6339C70.5849 57.6339 69.7939 57.307 69.2099 56.7247C68.921 56.4321 68.6939 56.0844 68.542 55.7022C68.3902 55.32 68.3168 54.9113 68.3261 54.5001C68.3168 54.089 68.3902 53.6802 68.542 53.2981C68.6939 52.9159 68.921 52.5682 69.2099 52.2755C69.4986 51.9868 69.8413 51.7578 70.2186 51.6017C70.5958 51.4456 71.0002 51.3655 71.4085 51.3658C71.8167 51.3662 72.2209 51.4471 72.5979 51.6038C72.9749 51.7606 73.3173 51.9902 73.6054 52.2794C73.8945 52.5713 74.1221 52.9183 74.2746 53.2997C74.4271 53.6812 74.5014 54.0894 74.4931 54.5001C74.5022 54.9112 74.4286 55.3199 74.2768 55.7021C74.125 56.0842 73.898 56.432 73.6093 56.7247ZM69.7792 56.2223C70.2117 56.6541 70.7979 56.8966 71.4091 56.8966C72.0203 56.8966 72.6065 56.6541 73.039 56.2223C73.2608 55.9953 73.4343 55.7256 73.5489 55.4296C73.6636 55.1336 73.717 54.8174 73.706 54.5001C73.717 54.1829 73.6636 53.8667 73.5489 53.5707C73.4343 53.2747 73.2608 53.005 73.039 52.7779C72.6065 52.3461 72.0203 52.1036 71.4091 52.1036C70.7979 52.1036 70.2117 52.3461 69.7792 52.7779C69.5577 53.0052 69.3845 53.2749 69.2701 53.5709C69.1556 53.8669 69.1022 54.183 69.1132 54.5001C69.1022 54.8173 69.1556 55.1334 69.2701 55.4294C69.3845 55.7253 69.5577 55.9951 69.7792 56.2223Z" stroke="white" stroke-width="0.2" stroke-miterlimit="10"/>
<path d="M75.5751 57.5001V51.5001H76.5136L79.4296 56.1676H79.4628L79.4296 55.0113V51.5001H80.2011V57.5001H79.3964L76.3456 52.6065H76.3124L76.3456 53.7628V57.5001H75.5751Z" stroke="white" stroke-width="0.2" stroke-miterlimit="10"/>
<path d="M68.1357 66.2519C67.2952 66.2551 66.4745 66.5073 65.7772 66.9766C65.0799 67.4458 64.5373 68.1112 64.2178 68.8887C63.8984 69.6661 63.8165 70.5208 63.9824 71.3448C64.1483 72.1687 64.5547 72.9251 65.1501 73.5183C65.7456 74.1115 66.5035 74.5149 67.3281 74.6777C68.1527 74.8405 69.007 74.7554 69.7832 74.433C70.5595 74.1106 71.2228 73.5654 71.6894 72.8663C72.156 72.1672 72.4051 71.3456 72.405 70.5051C72.4133 69.9429 72.3084 69.3848 72.0966 68.864C71.8847 68.3432 71.5703 67.8703 71.172 67.4735C70.7737 67.0767 70.2996 66.764 69.778 66.5542C69.2564 66.3443 68.6979 66.2416 68.1357 66.2519ZM68.1357 73.0828C67.6181 73.1197 67.1014 72.9999 66.6528 72.739C66.2042 72.4781 65.8445 72.0882 65.6207 71.62C65.3968 71.1519 65.319 70.6272 65.3975 70.1142C65.476 69.6012 65.7071 69.1238 66.0608 68.744C66.4144 68.3642 66.8742 68.0997 67.3803 67.9849C67.8864 67.8701 68.4153 67.9104 68.8982 68.1004C69.3811 68.2904 69.7956 68.6214 70.0877 69.0503C70.3799 69.4792 70.5361 69.9861 70.5361 70.5051C70.5519 70.8329 70.5018 71.1606 70.389 71.4688C70.2761 71.777 70.1028 72.0595 69.8791 72.2997C69.6554 72.5399 69.386 72.7329 69.0866 72.8674C68.7872 73.0019 68.4639 73.0751 68.1357 73.0828ZM58.8223 66.2519C57.9818 66.2551 57.1611 66.5073 56.4638 66.9765C55.7665 67.4458 55.2238 68.1112 54.9044 68.8886C54.5849 69.666 54.503 70.5207 54.6689 71.3447C54.8348 72.1687 55.2411 72.925 55.8366 73.5182C56.4321 74.1114 57.1899 74.5149 58.0145 74.6777C58.8391 74.8405 59.6935 74.7554 60.4697 74.433C61.246 74.1106 61.9093 73.5654 62.3759 72.8663C62.8425 72.1672 63.0916 71.3456 63.0915 70.5051C63.0998 69.9429 62.9949 69.3848 62.7831 68.864C62.5713 68.3432 62.2568 67.8703 61.8585 67.4735C61.4602 67.0767 60.9862 66.7641 60.4646 66.5542C59.943 66.3444 59.3845 66.2416 58.8223 66.2519ZM58.8223 73.0828C58.3047 73.1197 57.788 72.9999 57.3394 72.739C56.8908 72.4781 56.5311 72.0882 56.3073 71.62C56.0834 71.1519 56.0056 70.6272 56.0841 70.1142C56.1626 69.6012 56.3937 69.1238 56.7474 68.744C57.101 68.3642 57.5608 68.0997 58.0669 67.9849C58.573 67.8701 59.1019 67.9104 59.5848 68.1004C60.0677 68.2904 60.4822 68.6214 60.7743 69.0503C61.0665 69.4792 61.2227 69.9861 61.2227 70.5051C61.2385 70.8329 61.1884 71.1606 61.0756 71.4688C60.9628 71.777 60.7894 72.0595 60.5657 72.2997C60.342 72.5399 60.0726 72.7329 59.7732 72.8674C59.4738 73.0019 59.1505 73.0751 58.8223 73.0828ZM47.7435 67.5569V69.3612H52.0612C51.9989 70.2076 51.6526 71.008 51.0784 71.6329C50.6458 72.0739 50.1254 72.4193 49.551 72.6468C48.9766 72.8744 48.3609 72.979 47.7435 72.9538C46.4815 72.9368 45.277 72.4234 44.3906 71.525C43.5042 70.6265 43.0072 69.4151 43.0072 68.153C43.0072 66.8908 43.5042 65.6794 44.3906 64.7809C45.277 63.8825 46.4815 63.3691 47.7435 63.3521C48.9558 63.3362 50.1253 63.7994 50.9979 64.6409L52.2706 63.3682C51.6752 62.7787 50.9681 62.314 50.1907 62.0014C49.4133 61.6888 48.5813 61.5345 47.7435 61.5476C46.868 61.5349 45.9987 61.6963 45.1862 62.0226C44.3736 62.3488 43.634 62.8333 43.0104 63.4479C42.3867 64.0625 41.8915 64.795 41.5535 65.6027C41.2155 66.4105 41.0414 67.2773 41.0414 68.153C41.0414 69.0286 41.2155 69.8954 41.5535 70.7032C41.8915 71.5109 42.3867 72.2434 43.0104 72.858C43.634 73.4726 44.3736 73.9571 45.1862 74.2833C45.9987 74.6096 46.868 74.771 47.7435 74.7582C48.599 74.7937 49.4522 74.6469 50.2466 74.3275C51.041 74.008 51.7584 73.5234 52.3511 72.9056C53.4036 71.7568 53.9645 70.2418 53.9139 68.6847C53.9181 68.3065 53.8857 67.9289 53.8171 67.5569H47.7435ZM93.0518 68.9585C92.7962 68.1881 92.3097 67.5151 91.6583 67.0309C91.0069 66.5466 90.2222 66.2747 89.4108 66.2519C88.8644 66.2553 88.3243 66.3695 87.8232 66.5875C87.3221 66.8056 86.8704 67.123 86.4955 67.5205C86.1205 67.9181 85.8301 68.3875 85.6417 68.9005C85.4533 69.4135 85.3709 69.9593 85.3994 70.5051C85.3871 71.0642 85.4876 71.6202 85.695 72.1396C85.9024 72.6591 86.2123 73.1314 86.6063 73.5284C87.0002 73.9254 87.4702 74.2389 87.9881 74.4502C88.5059 74.6615 89.0611 74.7663 89.6203 74.7582C90.321 74.7621 91.0116 74.5919 91.6302 74.2629C92.2489 73.9339 92.7761 73.4565 93.1645 72.8734L91.7146 71.9067C91.4974 72.2675 91.1902 72.5656 90.823 72.7717C90.4559 72.9779 90.0414 73.0851 89.6203 73.0828C89.187 73.0993 88.7588 72.9853 88.391 72.7555C88.0233 72.5257 87.7331 72.1907 87.5581 71.7939L93.2452 69.4419L93.0518 68.9585ZM87.2521 70.3762C87.2321 70.0667 87.274 69.7562 87.3754 69.4631C87.4768 69.1699 87.6357 68.8999 87.8427 68.6689C88.0497 68.4379 88.3007 68.2505 88.581 68.1176C88.8614 67.9848 89.1654 67.9092 89.4753 67.8953C89.7979 67.874 90.1197 67.9483 90.4005 68.1087C90.6813 68.2691 90.9086 68.5087 91.0541 68.7974L87.2521 70.3762ZM82.6283 74.5005H84.4971V61.9988H82.6283V74.5005ZM79.5673 67.2024H79.5029C79.2188 66.8938 78.8721 66.6493 78.4859 66.4854C78.0997 66.3215 77.683 66.2419 77.2635 66.2519C76.1669 66.2986 75.1306 66.7671 74.3711 67.5596C73.6116 68.3521 73.1876 69.4074 73.1876 70.5051C73.1876 71.6028 73.6116 72.658 74.3711 73.4506C75.1306 74.2431 76.1669 74.7116 77.2635 74.7582C77.6846 74.7695 78.1031 74.6888 78.4898 74.5219C78.8766 74.3549 79.2223 74.1057 79.5029 73.7917H79.5673V74.4039C79.5673 76.0311 78.6974 76.9009 77.2957 76.9009C76.8286 76.8898 76.3754 76.7398 75.9938 76.4701C75.6122 76.2004 75.3196 75.8232 75.1531 75.3865L73.5259 76.0632C73.8326 76.8099 74.3553 77.448 75.0269 77.8958C75.6985 78.3435 76.4886 78.5805 77.2957 78.5764C79.4868 78.5764 81.3395 77.2876 81.3395 74.146V66.5096H79.5673V67.2024ZM77.4247 73.0828C76.7788 73.028 76.177 72.7327 75.7384 72.2553C75.2998 71.778 75.0564 71.1534 75.0564 70.5051C75.0564 69.8568 75.2998 69.2322 75.7384 68.7549C76.177 68.2775 76.7788 67.9822 77.4247 67.9275C77.7461 67.9431 78.061 68.0234 78.3507 68.1634C78.6404 68.3034 78.8989 68.5002 79.1109 68.7423C79.3229 68.9843 79.4839 69.2666 79.5845 69.5722C79.6851 69.8778 79.7231 70.2005 79.6962 70.5212C79.7214 70.8398 79.682 71.1602 79.5804 71.4633C79.4788 71.7663 79.3172 72.0458 79.1051 72.2849C78.8931 72.5241 78.635 72.718 78.3462 72.8551C78.0575 72.9921 77.7441 73.0696 77.4247 73.0828ZM101.806 61.9991H97.3345V74.5005H99.2002V69.764H101.806C102.334 69.793 102.862 69.714 103.358 69.532C103.854 69.3499 104.308 69.0686 104.692 68.7053C105.076 68.3419 105.381 67.9041 105.59 67.4186C105.799 66.9331 105.907 66.4101 105.907 65.8815C105.907 65.353 105.799 64.83 105.59 64.3445C105.381 63.859 105.076 63.4212 104.692 63.0578C104.308 62.6945 103.854 62.4132 103.358 62.2311C102.862 62.0491 102.334 61.9701 101.806 61.9991ZM101.854 68.0243H99.2002V63.739H101.854C102.139 63.733 102.422 63.7841 102.688 63.8891C102.953 63.9941 103.194 64.151 103.398 64.3506C103.602 64.5501 103.764 64.7883 103.874 65.0512C103.985 65.3141 104.041 65.5964 104.041 65.8816C104.041 66.1668 103.985 66.4491 103.874 66.712C103.764 66.9749 103.602 67.2131 103.398 67.4126C103.194 67.6122 102.953 67.7691 102.688 67.8741C102.422 67.9791 102.139 68.0302 101.854 68.0243ZM113.386 66.229C112.705 66.1892 112.027 66.3491 111.435 66.6891C110.844 67.0291 110.365 67.5343 110.056 68.1428L111.713 68.8344C111.877 68.5324 112.126 68.2848 112.429 68.122C112.732 67.9592 113.075 67.8882 113.418 67.9177C113.891 67.8714 114.363 68.0148 114.731 68.3163C115.099 68.6177 115.332 69.0528 115.38 69.5259V69.6546C114.781 69.3363 114.112 69.1706 113.434 69.1721C111.649 69.1721 109.831 70.1532 109.831 71.9867C109.849 72.3732 109.943 72.7521 110.11 73.1012C110.277 73.4503 110.512 73.7623 110.801 74.0189C111.091 74.2754 111.429 74.4711 111.795 74.5945C112.162 74.7178 112.55 74.7663 112.935 74.7369C113.405 74.7646 113.874 74.6658 114.292 74.4508C114.711 74.2359 115.064 73.9126 115.316 73.5147H115.38V74.4797H117.181V69.6868C117.181 67.4673 115.525 66.229 113.386 66.229ZM113.16 73.0803C112.549 73.0803 111.697 72.7748 111.697 72.0189C111.697 71.054 112.758 70.684 113.675 70.684C114.271 70.6681 114.859 70.8125 115.38 71.1021C115.311 71.6444 115.049 72.1435 114.641 72.5071C114.233 72.8708 113.707 73.0744 113.16 73.0803ZM123.743 66.5023L121.604 71.9223H121.54L119.32 66.5023H117.31L120.639 74.0775L118.741 78.2913H120.687L125.818 66.5023H123.743ZM106.936 74.5005H108.802V61.9991H106.936V74.5005Z" fill="white"/>
<path d="M10.4353 52.0379C10.1074 52.43 9.94182 52.9326 9.97251 53.4428V75.5589C9.94173 76.0691 10.1073 76.5718 10.4353 76.9638L10.5093 77.0359L22.8983 64.647V64.3547L10.5093 51.9653L10.4353 52.0379Z" fill="url(#paint0_linear_414_501)"/>
<path d="M27.0277 68.7787L22.8983 64.6473V64.355L27.0287 60.2246L27.1218 60.2777L32.0146 63.0578C33.4122 63.8518 33.4122 65.151 32.0146 65.9455L27.1218 68.7256L27.0277 68.7787Z" fill="url(#paint1_linear_414_501)"/>
<path d="M27.1218 68.7249L22.8983 64.501L10.4353 76.9639C10.7201 77.215 11.0837 77.3587 11.4633 77.3699C11.8428 77.3811 12.2143 77.2592 12.5134 77.0253L27.1218 68.7249Z" fill="url(#paint2_linear_414_501)"/>
<path d="M27.1218 60.2771L12.5134 51.9767C12.2143 51.7428 11.8428 51.6208 11.4633 51.6321C11.0837 51.6433 10.7201 51.7869 10.4353 52.0381L22.8983 64.5011L27.1218 60.2771Z" fill="url(#paint3_linear_414_501)"/>
<path opacity="0.2" d="M27.0287 68.6318L12.5134 76.8791C12.2258 77.0981 11.8748 77.2175 11.5134 77.2194C11.152 77.2214 10.7997 77.1057 10.5098 76.8898L10.4353 76.9643L10.5093 77.0364L10.5098 77.0359C10.7997 77.2519 11.1519 77.3677 11.5134 77.3657C11.8749 77.3638 12.2259 77.2443 12.5134 77.0252L27.1218 68.7248L27.0287 68.6318Z" fill="black"/>
<path opacity="0.12" d="M10.4353 76.8185C10.1074 76.4264 9.94183 75.9238 9.97248 75.4136V75.5597C9.94181 76.0699 10.1074 76.5725 10.4353 76.9646L10.5098 76.8901L10.4353 76.8185Z" fill="black"/>
<path opacity="0.12" d="M32.0146 65.7988L27.0287 68.632L27.1218 68.725L32.0146 65.9449C32.3024 65.82 32.5515 65.6202 32.7358 65.3663C32.9202 65.1125 33.0331 64.8138 33.0629 64.5015C33.001 64.7843 32.8741 65.0488 32.6921 65.274C32.5101 65.4992 32.2781 65.6789 32.0146 65.7988Z" fill="black"/>
<path opacity="0.25" d="M12.5134 52.1233L32.0146 63.2033C32.2783 63.3232 32.5103 63.5029 32.6923 63.7282C32.8743 63.9535 33.0012 64.2182 33.0629 64.5011C33.0334 64.1887 32.9205 63.8899 32.7362 63.6359C32.5518 63.3819 32.3026 63.1821 32.0146 63.0572L12.5134 51.9772C11.1158 51.1831 9.97253 51.8427 9.97253 53.4435V53.5896C9.97253 51.9889 11.1158 51.3293 12.5134 52.1233Z" fill="white"/>
</g>
</g>
<defs>
<linearGradient id="paint0_linear_414_501" x1="21.7996" y1="53.2096" x2="5.01724" y2="69.9921" gradientUnits="userSpaceOnUse">
<stop stop-color="#00A0FF"/>
<stop offset="0.00657" stop-color="#00A1FF"/>
<stop offset="0.2601" stop-color="#00BEFF"/>
<stop offset="0.5122" stop-color="#00D2FF"/>
<stop offset="0.7604" stop-color="#00DFFF"/>
<stop offset="1" stop-color="#00E3FF"/>
</linearGradient>
<linearGradient id="paint1_linear_414_501" x1="33.8343" y1="64.5017" x2="9.6374" y2="64.5017" gradientUnits="userSpaceOnUse">
<stop stop-color="#FFE000"/>
<stop offset="0.4087" stop-color="#FFBD00"/>
<stop offset="0.7754" stop-color="#FFA500"/>
<stop offset="1" stop-color="#FF9C00"/>
</linearGradient>
<linearGradient id="paint2_linear_414_501" x1="24.8269" y1="66.7961" x2="2.06857" y2="89.5544" gradientUnits="userSpaceOnUse">
<stop stop-color="#FF3A44"/>
<stop offset="1" stop-color="#C31162"/>
</linearGradient>
<linearGradient id="paint3_linear_414_501" x1="7.29723" y1="44.6762" x2="17.4598" y2="54.8388" gradientUnits="userSpaceOnUse">
<stop stop-color="#32A071"/>
<stop offset="0.0685" stop-color="#2DA771"/>
<stop offset="0.4762" stop-color="#15CF74"/>
<stop offset="0.8009" stop-color="#06E775"/>
<stop offset="1" stop-color="#00F076"/>
</linearGradient>
<clipPath id="clip0_414_501">
<rect width="176" height="84.0002" fill="white" transform="translate(0 0.5)"/>
</clipPath>
<clipPath id="clip1_414_501">
<rect width="135" height="40.0002" fill="white" transform="translate(0 44.5)"/>
</clipPath>
</defs>
</svg>
