<svg width="22" height="23" viewBox="0 0 22 23" fill="none" xmlns="http://www.w3.org/2000/svg">
<g id="material-symbols-light:arrow-right-alt-rounded">
<path id="Vector" d="M11.7494 7.25159C11.7573 7.50274 11.8591 7.72467 12.0321 7.89763L14.5324 10.398H5.34742C5.09518 10.398 4.85943 10.488 4.67453 10.6716L4.67452 10.6716L4.67206 10.674C4.48844 10.859 4.39844 11.0947 4.39844 11.3469C4.39844 11.5992 4.48844 11.8349 4.67206 12.0198L4.67205 12.0198L4.67453 12.0223C4.85944 12.2059 5.09518 12.2959 5.34742 12.2959H14.5324L12.0321 14.7962C11.8624 14.9659 11.7362 15.1949 11.7402 15.4734C11.7434 15.7406 11.8623 15.9633 12.0267 16.1327L12.0266 16.1328L12.0321 16.1382C12.2116 16.3177 12.4503 16.437 12.7326 16.4271C12.9831 16.4184 13.206 16.3179 13.3803 16.1436L17.3161 12.2078L16.9625 11.8543L17.3161 12.2078C17.431 12.0929 17.5306 11.9564 17.5929 11.7955C17.6494 11.6504 17.6744 11.499 17.6744 11.3469C17.6744 11.1948 17.6494 11.0435 17.5929 10.8983C17.5306 10.7375 17.431 10.6009 17.3161 10.486L16.9625 10.8396L17.3161 10.486L13.3803 6.55028L13.0268 6.90384L13.3803 6.55028C13.2084 6.37834 12.9784 6.25461 12.701 6.25749L12.6983 6.25753C12.4258 6.26181 12.2011 6.38668 12.0321 6.55567L12.032 6.55561L12.0256 6.56228C11.8526 6.74174 11.74 6.97669 11.7494 7.25159ZM11.7494 7.25159C11.7494 7.25201 11.7494 7.25243 11.7494 7.25285L12.2491 7.23518L11.7494 7.25033C11.7494 7.25075 11.7494 7.25117 11.7494 7.25159ZM15.7395 10.898L15.2395 10.398L15.0324 10.898H15.7395Z" fill="white" stroke="white"/>
</g>
</svg>
