<svg width="60" height="60" viewBox="0 0 60 60" fill="none" xmlns="http://www.w3.org/2000/svg">
<g id="bee_icon_125545 1">
<path id="Layer_3" d="M30.7907 17.7531C32.147 15.8312 34.5845 16.5781 37.2876 18.5C42.4876 22.1969 48.6626 30.2406 49.972 31.9844C50.0563 32.0937 50.1407 32.2063 50.2251 32.3219C52.7501 35.9031 52.7501 41.7062 50.2251 45.2875C47.697 48.8687 43.6001 48.8687 41.0751 45.2875C40.9939 45.1719 40.9126 45.0531 40.8376 44.9312C40.572 44.5281 40.0938 43.8031 39.4845 42.8344C38.647 41.5062 37.5626 39.7281 36.4251 37.7125C35.4376 35.9656 34.4126 34.0438 33.4813 32.0875C31.5438 28.0375 30.0001 23.8437 30.0001 20.775C30.0001 19.5687 30.2407 18.5344 30.7907 17.7531ZM10.0282 31.9844C9.94385 32.0937 9.85947 32.2063 9.7751 32.3219C7.2501 35.9031 7.2501 41.7062 9.7751 45.2875C12.3032 48.8687 16.4001 48.8687 18.9251 45.2875C19.0063 45.1719 19.0876 45.0531 19.1626 44.9312C19.4282 44.5281 19.9063 43.8031 20.5157 42.8344C21.3532 41.5062 22.4376 39.7281 23.5751 37.7125C24.5626 35.9656 25.5876 34.0438 26.5188 32.0875C28.4563 28.0375 30.0001 23.8437 30.0001 20.775C30.0001 19.5656 29.7595 18.5312 29.2095 17.75C27.8532 15.8281 25.4157 16.575 22.7126 18.4969C17.5126 22.1969 11.3376 30.2406 10.0282 31.9844Z" fill="#FBD78C"/>
<path id="Layer_4" d="M29.9999 20.775C29.9999 19.5656 29.7593 18.5313 29.2093 17.75C27.853 15.8281 25.4155 16.575 22.7124 18.4969V17.8594C22.7124 13.8344 25.9749 10.5719 29.9999 10.5719C34.0249 10.5719 37.2874 13.8344 37.2874 17.8594V18.5C34.5843 16.5781 32.1468 15.8313 30.7905 17.7531C30.2405 18.5344 29.9999 19.5688 29.9999 20.775Z" fill="#FBD78C"/>
<path id="Layer_5" d="M30.0001 20.775C30.0001 23.8406 31.5438 28.0344 33.4782 32.0875H26.522C28.4563 28.0375 30.0001 23.8438 30.0001 20.775Z" fill="#FBD78C"/>
<path id="Layer_6" d="M36.4249 37.7125H23.575C24.5625 35.9656 25.5874 34.0438 26.5187 32.0875H33.4781C34.4125 34.0438 35.4374 35.9656 36.4249 37.7125Z" fill="#FBD78C"/>
<path id="Layer_7" d="M39.4813 42.8344V43.3375H20.5156V42.8344C21.3531 41.5063 22.4375 39.7281 23.575 37.7125H36.425C37.5625 39.7281 38.6469 41.5063 39.4813 42.8344Z" fill="#FBD78C"/>
<path id="Layer_2" d="M20.5156 43.3375H39.4813C39.4813 45.4563 38.875 47.3844 37.8375 48.9625H22.1625C21.125 47.3844 20.5156 45.4563 20.5156 43.3375Z" fill="#FBD78C"/>
<path id="Layer_8" d="M22.1626 48.9625H37.8376C36.1251 51.5656 33.247 53.2188 30.0001 53.2188C27.3907 53.2188 25.022 52.1531 23.3032 50.3844C22.8813 49.95 22.5001 49.475 22.1626 48.9625Z" fill="#FBD78C"/>
<g id="STROKES">
<g id="XMLID_2_">
<path id="Vector" d="M39.4813 43.3375C39.4813 45.4563 38.875 47.3844 37.8375 48.9625C36.125 51.5656 33.2469 53.2188 30 53.2188C27.3906 53.2188 25.0219 52.1531 23.3031 50.3844C22.8813 49.95 22.5 49.475 22.1625 48.9625C21.125 47.3844 20.5156 45.4563 20.5156 43.3375H39.4813Z" stroke="white" stroke-width="1.5625" stroke-miterlimit="10" stroke-linecap="round" stroke-linejoin="round"/>
<path id="Vector_2" d="M23.5752 37.7125H36.4252" stroke="white" stroke-width="1.5625" stroke-miterlimit="10" stroke-linecap="round" stroke-linejoin="round"/>
<path id="Vector_3" d="M26.522 32.0875H33.4782" stroke="white" stroke-width="1.5625" stroke-miterlimit="10" stroke-linecap="round" stroke-linejoin="round"/>
<path id="Vector_4" d="M22.7126 18.5001C17.5126 22.197 11.3376 30.2407 10.0282 31.9845C9.94385 32.0938 9.85947 32.2063 9.7751 32.322C7.2501 35.9032 7.2501 41.7063 9.7751 45.2876C12.3032 48.8688 16.4001 48.8688 18.9251 45.2876C19.0063 45.172 19.0876 45.0532 19.1626 44.9313C19.4282 44.5282 19.9063 43.8032 20.5157 42.8345C21.3532 41.5063 22.4376 39.7282 23.5751 37.7126C24.5626 35.9657 25.5876 34.0438 26.5188 32.0876C28.4563 28.0376 30.0001 23.8438 30.0001 20.7751C30.0001 19.5657 29.7595 18.5313 29.2095 17.7501C27.8532 15.8313 25.4126 16.5782 22.7126 18.5001Z" stroke="white" stroke-width="1.5625" stroke-miterlimit="10" stroke-linecap="round" stroke-linejoin="round"/>
<path id="Vector_5" d="M39.4844 42.8344C40.0938 43.8 40.5688 44.5282 40.8375 44.9313C40.9156 45.0532 40.9938 45.1719 41.075 45.2875C43.6 48.8688 47.7 48.8688 50.225 45.2875C52.75 41.7063 52.75 35.9032 50.225 32.3219C50.1438 32.2063 50.0594 32.0938 49.9719 31.9844C48.6625 30.2407 42.4875 22.1969 37.2875 18.5C34.5844 16.5782 32.1469 15.8313 30.7906 17.7532C30.2406 18.5344 30 19.5688 30 20.7782C30 23.8438 31.5438 28.0375 33.4781 32.0907C34.4125 34.0469 35.4375 35.9688 36.4219 37.7157C37.5625 39.7282 38.6469 41.5063 39.4844 42.8344Z" stroke="white" stroke-width="1.5625" stroke-miterlimit="10" stroke-linecap="round" stroke-linejoin="round"/>
<path id="Vector_6" d="M22.7126 18.5001V17.8626C22.7126 13.8376 25.9751 10.5751 30.0001 10.5751C34.0251 10.5751 37.2876 13.8376 37.2876 17.8626V18.5001" stroke="white" stroke-width="1.5625" stroke-miterlimit="10" stroke-linecap="round" stroke-linejoin="round"/>
<path id="Vector_7" d="M26.5719 10.5719C26.5719 10.5719 26.6688 6.7782 23.6094 6.7782" stroke="white" stroke-width="1.5625" stroke-miterlimit="10" stroke-linecap="round" stroke-linejoin="round"/>
<path id="Vector_8" d="M33.4283 10.5719C33.4283 10.5719 33.3314 6.7782 36.3908 6.7782" stroke="white" stroke-width="1.5625" stroke-miterlimit="10" stroke-linecap="round" stroke-linejoin="round"/>
<path id="Vector_9" d="M22.1626 48.9625H37.8376" stroke="white" stroke-width="1.5625" stroke-miterlimit="10" stroke-linecap="round" stroke-linejoin="round"/>
<path id="Vector_10" d="M20.5156 43.3376V42.8345" stroke="white" stroke-width="1.5625" stroke-miterlimit="10" stroke-linecap="round" stroke-linejoin="round"/>
<path id="Vector_11" d="M39.4814 43.3376V42.8345" stroke="white" stroke-width="1.5625" stroke-miterlimit="10" stroke-linecap="round" stroke-linejoin="round"/>
</g>
</g>
</g>
</svg>
