<svg width="60" height="60" viewBox="0 0 60 60" fill="none" xmlns="http://www.w3.org/2000/svg">
<g id="031gears_101495 1" clip-path="url(#clip0_208_3371)">
<g id="Group">
<path id="Vector" d="M36.4939 37.8351L32.8652 37.2508C32.5502 36.1151 32.0985 35.026 31.517 33.9987L33.6704 31.0185C33.9691 30.6051 33.9235 30.0359 33.5628 29.6753L30.327 26.4392C29.9661 26.0781 29.397 26.0329 28.9838 26.3316L26.0035 28.485C24.9762 27.9035 23.8869 27.452 22.7516 27.137L22.167 23.508C22.0858 23.0045 21.6512 22.6343 21.1412 22.6343H16.5644C16.0544 22.6343 15.6198 23.0044 15.5386 23.508L14.9541 27.1368C13.8189 27.4518 12.7298 27.9033 11.7023 28.485L8.722 26.3316C8.3087 26.033 7.73954 26.0784 7.37884 26.439L4.14274 29.6751C3.7821 30.0359 3.7365 30.605 4.03524 31.0184L6.18854 33.9987C5.60694 35.0262 5.1554 36.1154 4.84044 37.2508L1.21157 37.835C0.708035 37.9162 0.337769 38.3508 0.337769 38.8608V43.4377C0.337769 43.9478 0.707969 44.3823 1.2115 44.4635L4.84044 45.0479C5.15557 46.1833 5.607 47.2724 6.18854 48.2998L4.03524 51.2801C3.7365 51.6935 3.78207 52.2626 4.14274 52.6234L7.37884 55.8595C7.73947 56.2201 8.30857 56.2655 8.722 55.9669L11.7023 53.8134C12.7297 54.3949 13.8188 54.8465 14.9541 55.1616L15.5386 58.7905C15.6197 59.294 16.0544 59.6642 16.5644 59.6642H21.1412C21.6512 59.6642 22.0858 59.2941 22.167 58.7905L22.7515 55.1614C23.8869 54.8465 24.9761 54.3949 26.0032 53.8135L28.9837 55.9669C29.3971 56.2656 29.9663 56.2203 30.327 55.8595L33.5631 52.6235C33.9237 52.2627 33.9692 51.6937 33.6705 51.2803L31.517 48.2998C32.0985 47.2727 32.55 46.1836 32.8652 45.0479L36.4941 44.4635C36.9976 44.3823 37.3678 43.9478 37.3678 43.4377V38.8608C37.3678 38.3508 36.9975 37.9162 36.4939 37.8351ZM35.2899 42.5527L31.8594 43.1052C31.4403 43.1728 31.1045 43.4883 31.0111 43.9024C30.6991 45.286 30.1556 46.5969 29.3958 47.7985C29.169 48.1574 29.1833 48.6182 29.4319 48.9623L31.4679 51.7799L29.4834 53.7643L26.6656 51.7285C26.3215 51.4799 25.8607 51.4655 25.5019 51.6924C24.3 52.4522 22.9894 52.9955 21.606 53.3072C21.192 53.4007 20.8763 53.7366 20.8088 54.1556L20.2562 57.5863H17.4494L16.8969 54.1558C16.8294 53.7367 16.5137 53.4009 16.0997 53.3075C14.7165 52.9956 13.4056 52.4522 12.2034 51.6924C11.8446 51.4655 11.3838 51.4799 11.0398 51.7285L8.22234 53.7643L6.23784 51.7798L8.27347 48.9623C8.52207 48.6182 8.53644 48.1575 8.30964 47.7987C7.54977 46.5965 7.0064 45.2855 6.6945 43.9024C6.60107 43.4883 6.26524 43.1728 5.84617 43.1052L2.41577 42.5527V39.7459L5.84617 39.1935C6.2653 39.126 6.6012 38.8103 6.69457 38.3962C7.00627 37.0132 7.54967 35.7024 8.3097 34.4999C8.5365 34.141 8.52214 33.6804 8.27354 33.3363L6.2379 30.5188L8.2224 28.5343L11.0399 30.5701C11.3839 30.8187 11.8448 30.8331 12.2035 30.6062C13.406 29.846 14.7168 29.3026 16.0996 28.991C16.5137 28.8976 16.8294 28.5617 16.897 28.1426L17.4495 24.7122H20.2563L20.8088 28.1427C20.8764 28.5618 21.1921 28.8978 21.6061 28.9911C22.9895 29.3029 24.3001 29.8463 25.502 30.6062C25.8609 30.833 26.3217 30.8187 26.6658 30.5701L29.4834 28.5342L31.4678 30.5188L29.432 33.3364C29.1834 33.6805 29.169 34.1413 29.3959 34.5002C30.1559 35.702 30.6993 37.0127 31.0112 38.3961C31.1045 38.8103 31.4404 39.126 31.8594 39.1935L35.2899 39.7459L35.2899 42.5527Z" fill="#F7A733"/>
<path id="Vector_2" d="M18.8527 30.9475C13.2274 30.9475 8.651 35.5239 8.651 41.1492C8.651 46.7745 13.2274 51.351 18.8527 51.351C24.4782 51.351 29.0548 46.7745 29.0548 41.1492C29.0548 35.5239 24.4782 30.9475 18.8527 30.9475ZM18.8527 49.273C14.3733 49.273 10.729 45.6287 10.729 41.1492C10.729 36.6697 14.3733 33.0255 18.8527 33.0255C23.3324 33.0255 26.9768 36.6697 26.9768 41.1492C26.9768 45.6287 23.3324 49.273 18.8527 49.273Z" fill="#F7A733"/>
<path id="Vector_3" d="M58.9023 19.3916L56.4185 17.7239C56.5611 16.7985 56.5979 15.8637 56.5282 14.931L59.1333 13.462C59.5776 13.2113 59.7743 12.6755 59.5976 12.197L58.2623 8.58171C58.0856 8.10308 57.5879 7.82421 57.0874 7.92204L54.1526 8.49878C53.5994 7.74475 52.9639 7.05828 52.2541 6.44774L53.0574 3.56588C53.1942 3.07451 52.9545 2.55661 52.4913 2.34325L48.9912 0.730978C48.5278 0.517045 47.9781 0.671845 47.6939 1.09538L46.026 3.57938C45.1025 3.43761 44.1665 3.40021 43.2334 3.46978L41.7642 0.864645C41.5135 0.420245 40.9777 0.223545 40.4991 0.400378L36.8838 1.73565C36.4052 1.91235 36.1259 2.41021 36.2243 2.91074L36.8012 5.84508C36.047 6.39834 35.3604 7.03395 34.7499 7.74388L31.8684 6.94041C31.377 6.80401 30.859 7.04348 30.6456 7.50658L29.0332 11.0066C28.8198 11.4699 28.9743 12.0195 29.3976 12.3039L31.8813 13.9718C31.7388 14.8973 31.702 15.8321 31.7718 16.7645L29.1668 18.2336C28.7226 18.4842 28.5258 19.0202 28.7025 19.4986L30.0378 23.114C30.2145 23.5925 30.713 23.8727 31.2129 23.7735L34.1473 23.1968C34.7001 23.9505 35.3355 24.637 36.046 25.2479L35.2425 28.1296C35.1056 28.6209 35.3454 29.1391 35.8086 29.3524L39.3088 30.9646C39.7722 31.1781 40.3217 31.0236 40.6061 30.6L42.2742 28.1163C43.1974 28.2582 44.1336 28.2955 45.0668 28.2259L46.536 30.8313C46.7245 31.1658 47.0752 31.36 47.441 31.36C47.561 31.36 47.6828 31.3392 47.8007 31.2955L51.4164 29.9602C51.8949 29.7835 52.1743 29.2856 52.0758 28.7851L51.4989 25.8504C52.2526 25.2975 52.9391 24.6619 53.5501 23.9518L56.4318 24.7552C56.9232 24.8916 57.4412 24.6523 57.6546 24.1891L59.2667 20.6889C59.4801 20.2257 59.3258 19.676 58.9023 19.3916ZM56.1374 22.516L53.4522 21.7674C53.0431 21.6537 52.6063 21.7997 52.3483 22.1367C51.6314 23.0731 50.7683 23.872 49.7827 24.5115C49.4265 24.7426 49.2467 25.167 49.3288 25.5836L49.8662 28.3176L47.9112 29.0397L46.5426 26.6126C46.3568 26.2831 46.0092 26.0839 45.6378 26.0839C45.5924 26.0839 45.5466 26.0868 45.5007 26.0929C44.3431 26.247 43.1531 26.2001 42.0074 25.956C41.5926 25.8674 41.1651 26.0405 40.9284 26.393L39.3743 28.7069L37.4819 27.8354L38.2304 25.1502C38.3443 24.7413 38.1982 24.3041 37.8611 24.0461C36.9247 23.3294 36.1257 22.4662 35.4862 21.4807C35.2553 21.1245 34.831 20.945 34.4142 21.0267L31.6805 21.564L30.9583 19.609L33.3854 18.2404C33.7551 18.0318 33.9608 17.6194 33.9049 17.1987C33.7503 16.0334 33.7964 14.8582 34.042 13.7056C34.1304 13.2903 33.9573 12.8631 33.6051 12.6264L31.2909 11.0724L32.1627 9.17988L34.8477 9.92851C35.2565 10.042 35.6938 9.89618 35.9518 9.55904C36.6678 8.62328 37.5311 7.82431 38.5175 7.18421C38.8737 6.95318 39.0534 6.52875 38.9713 6.11218L38.4339 3.37844L40.389 2.65631L41.7576 5.08331C41.966 5.45308 42.3781 5.65905 42.7995 5.60295C43.957 5.44931 45.1468 5.49598 46.2927 5.74005C46.7074 5.82831 47.1348 5.65541 47.3717 5.30304L48.9257 2.98864L50.8181 3.86034L50.0696 6.54578C49.9556 6.95481 50.1019 7.39201 50.439 7.64988C51.3745 8.36591 52.1735 9.22894 52.8135 10.2151C53.0447 10.5713 53.4691 10.7504 53.8853 10.6691L56.6196 10.1318L57.3418 12.0867L54.9145 13.4553C54.5447 13.6639 54.339 14.0763 54.395 14.497C54.5497 15.6627 54.5036 16.838 54.2579 17.9901C54.1692 18.4054 54.3422 18.8327 54.6947 19.0694L57.0091 20.6234L56.1374 22.516Z" fill="#F7A733"/>
<path id="Vector_4" d="M44.1491 7.09058C43.1149 7.09058 42.0948 7.27364 41.1168 7.63488C36.5882 9.30728 34.2647 14.3522 35.9371 18.881C37.2013 22.3043 40.5021 24.6045 44.1507 24.6048C45.1845 24.6048 46.2052 24.4218 47.183 24.0605C51.7115 22.3881 54.0353 17.3432 52.3629 12.8147C51.0983 9.39091 47.7976 7.09058 44.1491 7.09058ZM46.4632 22.1113C45.7165 22.3871 44.9386 22.5268 44.1513 22.5268C41.3687 22.5267 38.8507 20.7722 37.8863 18.1611C36.6108 14.7072 38.3829 10.8595 41.8368 9.58411C42.5834 9.30828 43.3613 9.16854 44.1491 9.16854C46.9317 9.16854 49.4491 10.9231 50.4136 13.5345C51.6891 16.9882 49.9168 20.8357 46.4632 22.1113Z" fill="#F7A733"/>
</g>
</g>
<defs>
<clipPath id="clip0_208_3371">
<rect width="60" height="60" fill="white"/>
</clipPath>
</defs>
</svg>
