<svg width="60" height="54" viewBox="0 0 60 54" fill="none" xmlns="http://www.w3.org/2000/svg">
<g id="Group">
<path id="Vector" d="M45.9614 22.3803C57.7019 22.3803 59.8437 2.02135 59.9218 1.14704L60 0.303955L59.1402 0.33518C43.8979 0.803561 34.8932 4.25397 32.3762 10.6083C30.4846 15.3858 33.0172 20.6161 35.2684 23.1141C33.6582 26.5645 32.5326 30.2335 32.1417 33.9181C31.2819 32.3881 29.9844 30.2647 28.124 27.876C29.2652 23.8479 28.7493 20.3194 26.5607 17.3686C21.9333 11.1236 11.3653 9.453 5.86243 9.453C4.75248 9.453 3.72069 9.51545 2.79833 9.62474L0 9.98383L2.61073 11.0611C2.7358 11.1079 5.7061 12.3882 7.14435 17.3999C8.83273 23.3327 13.4758 30.2491 21.0266 30.2491C22.9338 30.2491 24.9661 29.7807 27.061 28.9064C29.6092 32.2163 31.0631 34.9486 31.6884 36.2444C28.5618 36.8533 25.8103 38.7112 24.1219 41.4747C22.5586 40.5691 20.8077 40.1007 18.9943 40.1007C13.3507 40.1007 8.75456 44.6909 8.75456 50.3271C8.75456 51.014 8.81709 51.7166 8.95779 52.3879C8.98906 52.5597 9.03596 52.747 9.08286 52.9188L9.22355 53.4808H56.6545L56.7014 52.7783C56.717 52.6221 56.717 52.4816 56.717 52.3255C56.717 49 54.2001 46.2678 50.9797 45.8931C50.9484 43.0984 48.6503 40.8345 45.852 40.8345C45.0391 40.8345 44.2418 41.0375 43.5227 41.4122C41.4435 38.0867 37.8009 36.0414 33.8458 36.0414C33.7363 36.0414 33.6269 36.0571 33.5018 36.0571C33.6269 31.826 34.7994 27.5794 36.6754 23.6137C37.7853 23.3327 41.8187 22.3803 45.9614 22.3803ZM21.0266 28.7659C12.1939 28.7659 8.92652 18.2117 8.58259 17.0096C8.0667 15.1829 7.34758 13.8089 6.61282 12.7473C10.7087 14.6364 14.1949 16.8378 17.1808 19.1173H13.1006V20.6161H19.0724C21.9333 23.0204 24.2626 25.456 26.0917 27.7043C24.3252 28.4068 22.6212 28.7659 21.0266 28.7659ZM26.9515 26.4084C25.826 25.0657 24.5284 23.645 23.0745 22.2242L22.4336 17.5404L20.9484 17.7433L21.3392 20.6005C19.9948 19.3983 18.5253 18.2117 16.9307 17.0564L16.1803 13.4499L14.7108 13.7465L15.1329 15.8074C12.5221 14.0588 9.58312 12.4194 6.30016 10.9674C13.0224 11.0611 21.7144 13.3406 25.3726 18.2586C27.061 20.5536 27.5925 23.3015 26.9515 26.4084ZM33.8458 37.5247C37.5195 37.5247 40.865 39.5387 42.6003 42.7861L43.0068 43.5512L43.7103 43.0359C44.3512 42.5676 45.086 42.3177 45.8676 42.3177C47.8687 42.3177 49.4945 43.9415 49.4945 45.9399C49.4945 46.1116 49.4633 46.2834 49.432 46.4707L49.3069 47.3294H50.1824H50.2918C52.9026 47.3607 55.0443 49.3903 55.2163 51.9664H10.4117C10.3022 51.42 10.2553 50.8735 10.2553 50.3115C10.2553 45.5027 14.1793 41.584 18.9943 41.584C20.7764 41.584 22.4961 42.1148 23.9656 43.1296L24.6691 43.6136L25.0599 42.8642C26.7639 39.5855 30.1407 37.5247 33.8458 37.5247ZM33.7832 11.1548C35.3309 7.26722 40.8494 2.53657 58.3273 1.84961C57.7957 5.65911 55.0912 20.8815 45.9614 20.8815C42.6003 20.8815 39.3955 21.4592 37.5508 21.8651C39.2861 18.602 41.4747 15.5732 43.8822 12.9971C44.4607 12.9034 46.5399 12.5755 48.5253 12.5755V11.0767C47.5091 11.0767 46.4773 11.1548 45.6175 11.2485C48.322 8.70359 51.2142 6.70516 54.0125 5.53421L53.4341 4.14468C51.9802 4.75358 50.5107 5.56544 49.0412 6.56465L49.2757 4.4101L47.7905 4.25397L47.4153 7.75122C45.4455 9.26565 43.5383 11.0923 41.7718 13.1376V9.28126H40.271V14.9643C38.6764 17.0252 37.2225 19.2734 36.0031 21.6309C34.1272 19.3046 32.2512 15.0423 33.7832 11.1548Z" fill="#F7A733"/>
</g>
</svg>
