<svg width="55" height="56" viewBox="0 0 55 56" fill="none" xmlns="http://www.w3.org/2000/svg">
<g id="honeycomb_honey_food_icon_183583 1">
<g id="layer1">
<path id="path1504" d="M8.68792 3.65112L3.55176 6.61457V12.5416L8.6858 15.5009L13.8241 12.5373V6.61457L8.68792 3.65112ZM21.2286 3.65112L16.103 6.61457V12.5416C17.8115 13.527 19.5204 14.5127 21.2286 15.4987L26.3647 12.5373V6.61457L21.2286 3.65112ZM33.7714 3.65112L28.6437 6.61457V12.5416L33.7735 15.5009L38.9075 12.5416V6.61457L33.7714 3.65112ZM46.312 3.65112L41.1886 6.61249V13.1942C41.2123 13.6284 40.9249 14.0015 40.6146 14.1807L34.9172 17.4737V23.3964L40.6146 26.6873C41.0579 26.9725 41.1886 27.1838 41.1886 27.6844V44.3493C41.1886 45.467 42.048 46.3349 43.1657 46.3349H43.1914C44.309 46.3349 45.1769 45.467 45.1769 44.3493V25.4352C45.1769 23.9133 47.4601 23.9133 47.4602 25.4352V33.8792C47.4602 34.9968 48.32 35.8563 49.4542 35.8563C50.5885 35.8563 51.4483 34.9968 51.4483 33.8792V6.61457L46.312 3.65112ZM8.66241 5.5282C8.89369 5.51845 9.12207 5.58219 9.31719 5.70691L11.6854 7.13546C12.9876 7.92236 11.8077 9.87606 10.5056 9.08916L8.13307 7.6499C7.15309 7.0737 7.5266 5.57601 8.66241 5.5282ZM48.0149 9.83109C48.6542 9.82134 49.1733 10.3419 49.1671 10.9812V15.5455C49.1671 17.0673 46.8839 17.0673 46.8839 15.5455V10.9812C46.8777 10.3515 47.3851 9.83729 48.0149 9.83109ZM14.9593 14.5144L9.82315 17.4821V23.3964L14.9614 26.3599L20.0934 23.3985V17.4821L14.9593 14.5144ZM27.5 14.5144L22.3744 17.4758V23.3985L27.4978 26.3599C29.2121 25.3753 30.9243 24.3872 32.6361 23.3985V17.4821L27.5 14.5144ZM27.4426 16.4213C27.6707 16.4116 27.8968 16.4694 28.091 16.5892L30.4635 18.0285C31.7662 18.8137 30.5885 20.7675 29.2857 19.9822L26.9111 18.5408C25.9366 17.9631 26.3109 16.4724 27.4426 16.4213ZM48.0149 18.9555C48.6542 18.9457 49.1733 19.4683 49.1671 20.1077V21.2513C49.1671 22.7732 46.8839 22.7732 46.8839 21.2513V20.1077C46.8777 19.4779 47.3851 18.9616 48.0149 18.9555ZM8.68581 25.3778L3.55178 28.3412V34.2662L8.68794 37.2296L13.8241 34.2662V28.3412L8.68581 25.3778ZM21.2307 25.3778L16.1031 28.3349V35.1143C16.1031 36.2395 16.974 37.1106 18.0993 37.1106C19.2245 37.1106 20.0934 36.2395 20.0934 35.1143C20.0934 33.8658 20.0922 32.6092 20.0955 31.3643C20.1087 30.7952 20.5378 30.3243 21.1032 30.2588C21.7889 30.1795 22.3871 30.7209 22.3745 31.411V39.1068C22.3745 40.232 23.2434 41.0987 24.3686 41.0987C25.4938 41.0987 26.3648 40.232 26.3648 39.1068C26.3647 35.5166 26.3648 31.9295 26.3648 28.3412L21.2307 25.3778ZM33.7735 25.3778C32.0632 26.3641 30.3532 27.3535 28.6437 28.3412V34.2662L33.7714 37.2296L38.9075 34.2662V28.3412L33.7735 25.3778ZM8.63053 27.2804C8.8593 27.2707 9.08333 27.3343 9.27681 27.4568L11.6493 28.8854C12.952 29.6707 11.7743 31.6244 10.4716 30.8391L8.09694 29.3999C7.12167 28.8215 7.49774 27.3295 8.63053 27.2804ZM33.714 27.2804C33.9428 27.2707 34.1689 27.3343 34.3624 27.4568L36.7327 28.8854C38.0352 29.6708 36.8575 31.6245 35.555 30.8391L33.1804 29.3999C32.2051 28.8215 32.5812 27.3295 33.714 27.2804ZM18.2034 42.5465C18.0188 42.555 17.8393 42.6104 17.682 42.7075C17.5246 42.8046 17.3946 42.9402 17.3042 43.1014C17.3042 43.1014 16.7189 44.1409 16.1307 45.3506C15.8366 45.9554 15.5364 46.6076 15.3037 47.215C15.071 47.8224 14.8785 48.329 14.8785 48.9731C14.8785 50.8236 16.4018 52.349 18.2523 52.349C20.1029 52.349 21.6261 50.8236 21.6261 48.9731C21.6261 48.329 21.4251 47.8224 21.1925 47.215C20.9598 46.6076 20.6681 45.9554 20.374 45.3506C19.7857 44.1409 19.2005 43.1014 19.2005 43.1014C19.1019 42.9257 18.9565 42.7808 18.7805 42.6828C18.6045 42.5848 18.4047 42.5377 18.2034 42.5465Z" fill="#FDEBC8"/>
</g>
</g>
</svg>
